<svg width="326" height="203" viewBox="0 0 326 203" fill="none" xmlns="http://www.w3.org/2000/svg">
<g clip-path="url(#clip0_40_22098)">
<path d="M30.7447 196.551C32.1872 198.493 33.9755 200.153 36.0201 201.449C36.4549 201.724 36.9013 201.984 37.3555 202.224H48.0422C47.9143 201.968 47.7899 201.709 47.6696 201.449C44.356 194.463 43.317 186.616 44.6985 179.01C46.0799 171.404 49.8124 164.422 55.3714 159.045C48.9118 161.038 42.9415 164.924 39.0363 170.435C37.1388 173.119 35.7894 176.15 35.0652 179.355C34.4198 172.945 35.4455 166.477 38.0425 160.581C32.7982 164.843 28.7142 170.679 27.1577 177.249C25.6012 183.822 26.7307 191.117 30.7447 196.551Z" fill="#F0F0F0"/>
<path d="M324.31 108.972H251.654C251.206 108.971 250.776 108.793 250.459 108.477C250.143 108.16 249.964 107.731 249.964 107.284V62.3812C249.964 61.9336 250.143 61.5046 250.459 61.1881C250.776 60.8716 251.206 60.6936 251.654 60.6931H324.31C324.758 60.6936 325.188 60.8716 325.505 61.1881C325.821 61.5046 325.999 61.9336 326 62.3812V107.284C325.999 107.731 325.821 108.16 325.505 108.477C325.188 108.793 324.758 108.971 324.31 108.972Z" fill="white"/>
<path d="M324.31 108.972H251.654C251.206 108.971 250.776 108.793 250.459 108.477C250.143 108.16 249.964 107.731 249.964 107.284V62.3812C249.964 61.9336 250.143 61.5046 250.459 61.1881C250.776 60.8716 251.206 60.6936 251.654 60.6931H324.31C324.758 60.6936 325.188 60.8716 325.505 61.1881C325.821 61.5046 325.999 61.9336 326 62.3812V107.284C325.999 107.731 325.821 108.16 325.505 108.477C325.188 108.793 324.758 108.971 324.31 108.972ZM251.654 61.3683C251.385 61.3686 251.127 61.4754 250.937 61.6653C250.747 61.8552 250.64 62.1127 250.64 62.3812V107.284C250.64 107.552 250.747 107.81 250.937 108C251.127 108.19 251.385 108.296 251.654 108.297H324.31C324.579 108.296 324.837 108.19 325.027 108C325.217 107.81 325.324 107.552 325.324 107.284V62.3812C325.324 62.1127 325.217 61.8552 325.027 61.6653C324.837 61.4754 324.579 61.3686 324.31 61.3683H251.654Z" fill="#3F3D56"/>
<path d="M309.948 75.6894H266.016C265.613 75.6894 265.226 75.5294 264.941 75.2444C264.655 74.9595 264.495 74.5731 264.495 74.1702C264.495 73.7672 264.655 73.3808 264.941 73.0959C265.226 72.8109 265.613 72.6509 266.016 72.6509H309.948C310.351 72.6509 310.738 72.8109 311.023 73.0959C311.308 73.3808 311.469 73.7672 311.469 74.1702C311.469 74.5731 311.308 74.9595 311.023 75.2444C310.738 75.5294 310.351 75.6894 309.948 75.6894Z" fill="#CCCCCC"/>
<path d="M309.948 86.1555H266.016C265.613 86.1555 265.226 85.9954 264.941 85.7105C264.655 85.4256 264.495 85.0392 264.495 84.6362C264.495 84.2333 264.655 83.8469 264.941 83.5619C265.226 83.277 265.613 83.1169 266.016 83.1169H309.948C310.351 83.1169 310.738 83.277 311.023 83.5619C311.308 83.8469 311.469 84.2333 311.469 84.6362C311.469 85.0392 311.308 85.4256 311.023 85.7105C310.738 85.9954 310.351 86.1555 309.948 86.1555Z" fill="#CCCCCC"/>
<path d="M306.034 102.749C309.035 102.749 311.469 100.319 311.469 97.32C311.469 94.3215 309.035 91.8906 306.034 91.8906C303.033 91.8906 300.599 94.3215 300.599 97.32C300.599 100.319 303.033 102.749 306.034 102.749Z" fill="#6C63FF"/>
<path d="M306.183 94.7624V94.2451H306.337V94.7624C306.554 94.7718 306.767 94.8238 306.963 94.9155C307.106 94.9826 307.229 95.0851 307.321 95.2134C307.406 95.332 307.451 95.4743 307.45 95.62C307.454 95.7265 307.418 95.8305 307.35 95.9127C307.321 95.9501 307.283 95.9803 307.24 96.0009C307.198 96.0216 307.151 96.0321 307.103 96.0318C307.068 96.0325 307.032 96.0259 307 96.0124C306.967 95.9989 306.937 95.9789 306.912 95.9535C306.887 95.9282 306.866 95.898 306.853 95.8646C306.84 95.8313 306.833 95.7955 306.834 95.7595C306.834 95.7092 306.844 95.6594 306.865 95.6132L306.926 95.4839C306.948 95.4298 306.958 95.3719 306.957 95.3137C306.958 95.2235 306.929 95.1354 306.875 95.0636C306.815 94.9884 306.735 94.9322 306.643 94.9019C306.544 94.8694 306.441 94.8488 306.337 94.8407V96.7022L306.371 96.7226C306.691 96.8919 306.982 97.1114 307.233 97.3726C307.344 97.5038 307.432 97.6528 307.493 97.8133C307.554 97.9689 307.586 98.1345 307.587 98.3016C307.59 98.518 307.533 98.7311 307.423 98.9176C307.316 99.0997 307.159 99.2474 306.97 99.343C306.771 99.4405 306.557 99.5027 306.337 99.5268V100.081H306.183V99.537C305.961 99.5352 305.741 99.4901 305.536 99.4043C305.332 99.3283 305.151 99.199 305.013 99.0299C304.892 98.8783 304.826 98.6897 304.828 98.4956C304.823 98.3593 304.865 98.2256 304.947 98.1161C304.979 98.069 305.022 98.0302 305.073 98.0033C305.123 97.9763 305.179 97.9619 305.236 97.9613C305.271 97.9601 305.305 97.966 305.337 97.9785C305.369 97.9911 305.398 98.01 305.422 98.0342C305.446 98.0584 305.465 98.0874 305.478 98.1192C305.49 98.1511 305.496 98.1852 305.495 98.2194C305.484 98.3242 305.44 98.4227 305.369 98.5012C305.332 98.5498 305.301 98.6022 305.276 98.6575C305.258 98.7006 305.249 98.7467 305.25 98.7933C305.251 98.9174 305.293 99.0376 305.371 99.1344C305.456 99.2429 305.568 99.3267 305.696 99.3772C305.843 99.4342 305.999 99.4619 306.156 99.4587H306.183V97.2365L305.989 97.1242C305.805 97.0176 305.665 96.9291 305.568 96.8587C305.474 96.7904 305.387 96.7129 305.308 96.6273C305.112 96.4191 305.004 96.1438 305.005 95.8582C305.004 95.6804 305.048 95.5053 305.134 95.3495C305.218 95.194 305.342 95.0632 305.492 94.97C305.701 94.8439 305.939 94.7725 306.183 94.7624ZM306.183 94.8373C306.051 94.8414 305.921 94.8702 305.8 94.9222C305.679 94.9822 305.579 95.0784 305.515 95.1973C305.442 95.3268 305.405 95.4733 305.407 95.6218C305.405 95.8031 305.461 95.9802 305.566 96.1279C305.622 96.2084 305.688 96.2805 305.764 96.342C305.887 96.4337 306.016 96.5176 306.149 96.5933L306.183 96.6137V94.8373ZM306.337 99.4519C306.424 99.4446 306.511 99.4263 306.594 99.3975C306.662 99.3714 306.725 99.3346 306.781 99.2886C306.886 99.1991 306.968 99.0852 307.018 98.9568C307.077 98.8151 307.107 98.6629 307.106 98.5093C307.093 98.2627 307.015 98.0241 306.88 97.8174C306.744 97.6107 306.557 97.4432 306.337 97.3318V99.4519Z" fill="white"/>
<path d="M274.816 78.9162H202.159C201.711 78.9157 201.282 78.7377 200.965 78.4212C200.648 78.1048 200.47 77.6757 200.47 77.2282V32.3255C200.47 31.878 200.648 31.4489 200.965 31.1324C201.282 30.816 201.711 30.638 202.159 30.6375H274.816C275.264 30.638 275.694 30.816 276.01 31.1324C276.327 31.4489 276.505 31.878 276.506 32.3255V77.2282C276.505 77.6757 276.327 78.1048 276.01 78.4212C275.694 78.7377 275.264 78.9157 274.816 78.9162Z" fill="white"/>
<path d="M274.816 78.9162H202.159C201.711 78.9157 201.282 78.7377 200.965 78.4212C200.648 78.1048 200.47 77.6757 200.47 77.2282V32.3255C200.47 31.878 200.648 31.4489 200.965 31.1324C201.282 30.816 201.711 30.638 202.159 30.6375H274.816C275.264 30.638 275.694 30.816 276.01 31.1324C276.327 31.4489 276.505 31.878 276.506 32.3255V77.2282C276.505 77.6757 276.327 78.1048 276.01 78.4212C275.694 78.7377 275.264 78.9157 274.816 78.9162ZM202.159 31.3127C201.891 31.313 201.633 31.4198 201.443 31.6097C201.253 31.7995 201.146 32.057 201.146 32.3255V77.2282C201.146 77.4967 201.253 77.7542 201.443 77.944C201.633 78.1339 201.891 78.2407 202.159 78.241H274.816C275.085 78.2407 275.343 78.1339 275.533 77.944C275.723 77.7542 275.83 77.4967 275.83 77.2282V32.3255C275.83 32.057 275.723 31.7995 275.533 31.6097C275.343 31.4198 275.085 31.313 274.816 31.3127H202.159Z" fill="#3F3D56"/>
<path d="M260.454 45.6337H216.522C216.118 45.6337 215.732 45.4737 215.446 45.1888C215.161 44.9039 215.001 44.5174 215.001 44.1145C215.001 43.7116 215.161 43.3251 215.446 43.0402C215.732 42.7553 216.118 42.5952 216.522 42.5952H260.454C260.857 42.5952 261.244 42.7553 261.529 43.0402C261.814 43.3251 261.975 43.7116 261.975 44.1145C261.975 44.5174 261.814 44.9039 261.529 45.1888C261.244 45.4737 260.857 45.6337 260.454 45.6337Z" fill="#CCCCCC"/>
<path d="M260.454 56.0998H216.522C216.118 56.0998 215.732 55.9398 215.446 55.6548C215.161 55.3699 215.001 54.9835 215.001 54.5806C215.001 54.1776 215.161 53.7912 215.446 53.5063C215.732 53.2214 216.118 53.0613 216.522 53.0613H260.454C260.857 53.0613 261.244 53.2214 261.529 53.5063C261.814 53.7912 261.975 54.1776 261.975 54.5806C261.975 54.9835 261.814 55.3699 261.529 55.6548C261.244 55.9398 260.857 56.0998 260.454 56.0998Z" fill="#CCCCCC"/>
<path d="M256.54 72.6938C259.541 72.6938 261.975 70.263 261.975 67.2644C261.975 64.2658 259.541 61.835 256.54 61.835C253.538 61.835 251.105 64.2658 251.105 67.2644C251.105 70.263 253.538 72.6938 256.54 72.6938Z" fill="#6C63FF"/>
<path d="M256.689 64.7067V64.1895H256.842V64.7067C257.059 64.7162 257.272 64.7682 257.469 64.8599C257.612 64.9269 257.735 65.0295 257.827 65.1577C257.912 65.2764 257.957 65.4186 257.956 65.5643C257.96 65.6708 257.924 65.7749 257.856 65.857C257.827 65.8944 257.789 65.9246 257.746 65.9452C257.703 65.9659 257.656 65.9764 257.609 65.9761C257.573 65.9768 257.538 65.9702 257.505 65.9567C257.473 65.9433 257.443 65.9232 257.418 65.8979C257.393 65.8726 257.372 65.8423 257.359 65.809C257.345 65.7756 257.339 65.7398 257.34 65.7039C257.34 65.6535 257.35 65.6037 257.37 65.5575L257.432 65.4282C257.453 65.3742 257.464 65.3163 257.462 65.2581C257.464 65.1679 257.435 65.0798 257.381 65.008C257.321 64.9327 257.24 64.8765 257.149 64.8463C257.05 64.8137 256.947 64.7931 256.842 64.785V66.6465L256.877 66.6669C257.197 66.8362 257.488 67.0557 257.738 67.3169C257.849 67.4482 257.938 67.5972 257.999 67.7577C258.06 67.9133 258.092 68.0788 258.093 68.246C258.095 68.4624 258.039 68.6754 257.929 68.862C257.822 69.0441 257.665 69.1917 257.476 69.2873C257.277 69.3848 257.063 69.447 256.842 69.4711V70.0258H256.689V69.4813C256.467 69.4796 256.247 69.4345 256.042 69.3486C255.837 69.2726 255.657 69.1434 255.519 68.9743C255.398 68.8227 255.332 68.6341 255.333 68.44C255.329 68.3037 255.371 68.1699 255.453 68.0605C255.485 68.0133 255.528 67.9746 255.578 67.9476C255.629 67.9207 255.685 67.9063 255.742 67.9057C255.776 67.9045 255.811 67.9103 255.843 67.9229C255.874 67.9354 255.903 67.9544 255.928 67.9786C255.952 68.0028 255.971 68.0317 255.984 68.0636C255.996 68.0954 256.002 68.1295 256.001 68.1638C255.99 68.2685 255.945 68.3671 255.875 68.4456C255.838 68.4942 255.807 68.5465 255.781 68.6018C255.764 68.6449 255.755 68.6911 255.756 68.7376C255.756 68.8617 255.799 68.9819 255.877 69.0788C255.962 69.1872 256.074 69.271 256.202 69.3215C256.349 69.3786 256.505 69.4063 256.662 69.4031H256.689V67.1808L256.495 67.0685C256.311 66.9619 256.171 66.8734 256.074 66.8031C255.98 66.7347 255.893 66.6572 255.814 66.5716C255.618 66.3634 255.51 66.0882 255.511 65.8025C255.51 65.6247 255.554 65.4496 255.64 65.2938C255.724 65.1384 255.847 65.0075 255.998 64.9143C256.207 64.7882 256.445 64.7168 256.689 64.7067ZM256.689 64.7816C256.557 64.7857 256.427 64.8145 256.306 64.8666C256.185 64.9266 256.085 65.0227 256.021 65.1417C255.948 65.2711 255.911 65.4176 255.912 65.5662C255.911 65.7474 255.967 65.9245 256.072 66.0723C256.127 66.1527 256.194 66.2248 256.27 66.2864C256.393 66.378 256.522 66.4619 256.655 66.5376L256.689 66.5581V64.7816ZM256.842 69.3963C256.93 69.3889 257.017 69.3706 257.1 69.3418C257.168 69.3157 257.231 69.2789 257.287 69.2329C257.392 69.1434 257.473 69.0295 257.524 68.9012C257.583 68.7594 257.613 68.6072 257.612 68.4536C257.599 68.2071 257.521 67.9684 257.385 67.7617C257.25 67.555 257.063 67.3875 256.842 67.2761V69.3963Z" fill="white"/>
<path d="M124.199 72.2161C123.566 72.1704 122.931 72.2639 122.338 72.4901C121.745 72.7162 121.209 73.0694 120.768 73.5249C120.326 73.9804 119.99 74.5271 119.783 75.1264C119.576 75.7257 119.503 76.3631 119.569 76.9937L105.601 83.5357L112.438 87.7179L124.654 80.8643C125.707 80.6831 126.657 80.1223 127.323 79.2882C127.99 78.454 128.328 77.4045 128.272 76.3385C128.216 75.2725 127.77 74.2641 127.02 73.5043C126.269 72.7445 125.266 72.2862 124.199 72.2161Z" fill="#FFB6B6"/>
<path d="M66.3993 198.085L71.2234 198.084L73.5183 179.496L66.3986 179.496L66.3993 198.085Z" fill="#FFB6B6"/>
<path d="M65.169 196.511L74.6691 196.511H74.6695C76.2751 196.511 77.8149 197.148 78.9503 198.283C80.0857 199.417 80.7235 200.955 80.7237 202.559V202.756L65.1693 202.756L65.169 196.511Z" fill="#2F2E41"/>
<path d="M91.0144 198.085L95.8384 198.084L98.1334 179.496L91.0136 179.496L91.0144 198.085Z" fill="#FFB6B6"/>
<path d="M89.7841 196.511L99.2841 196.511H99.2845C100.89 196.511 102.43 197.148 103.565 198.283C104.701 199.417 105.339 200.955 105.339 202.559V202.756L89.7844 202.756L89.7841 196.511Z" fill="#2F2E41"/>
<path d="M94.2368 101.669L96.6851 106.936L101.099 154.031L97.668 194.511H89.6429L80.1735 130.706L75.7256 193.041L64.8974 192.604L62.8187 108.091L94.2368 101.669Z" fill="#2F2E41"/>
<path d="M55.2193 58.2089L65.3703 54.083L79.6979 54.8858L92.4355 59.5232L96.6852 106.936C85.6038 112.981 74.3788 114.631 62.9585 110.308L52.3594 79.4273L55.2193 58.2089Z" fill="#6C63FF"/>
<path d="M88.4726 60.7767L92.9772 59.5233C92.9772 59.5233 96.3843 57.3101 97.5053 63.8892C98.6263 70.4682 104.394 80.7017 104.394 80.7017L114.269 75.4444L118.84 85.4185L103.246 94.8555L86.8248 78.3251L88.4726 60.7767Z" fill="#6C63FF"/>
<path d="M63.7639 45.2989C63.2168 44.0588 62.9197 42.7232 62.8893 41.3684C62.8589 40.0136 63.0959 38.666 63.5868 37.4027C64.0777 36.1394 64.8129 34.9851 65.7504 34.0056C66.6878 33.0261 67.8092 32.2407 69.0505 31.6942C70.2918 31.1477 71.6286 30.8508 72.9848 30.8205C74.3409 30.7901 75.6897 31.0269 76.9542 31.5174C78.2188 32.0078 79.3742 32.7423 80.3546 33.6788C81.335 34.6154 82.1212 35.7357 82.6682 36.9757L82.7273 37.1122C83.8142 39.625 83.8574 42.4663 82.8474 45.0109C82.3473 46.2709 81.6037 47.4201 80.659 48.393C79.7143 49.3658 78.5871 50.1433 77.3417 50.681C74.8265 51.7668 71.9825 51.81 69.4355 50.8009C66.8884 49.7919 64.8468 47.8134 63.76 45.3006L63.7639 45.2989Z" fill="#FFB6B6"/>
<path d="M77.7873 35.8544C79.9351 36.2437 83.259 37.5946 85.1036 36.0097C84.1926 34.9463 83.0467 34.1089 81.7562 33.5637C81.5021 33.4794 81.2667 33.3466 81.0634 33.1725C80.4344 32.5375 80.9204 31.4434 80.6326 30.585C80.4928 30.2712 80.2821 29.9943 80.0169 29.7758C79.7517 29.5574 79.4394 29.4034 79.1045 29.3261C78.4642 29.1348 77.7933 29.1037 77.1644 28.8716C75.676 28.3128 74.6179 26.7135 73.0923 26.2789C71.763 25.8948 70.4255 26.4918 69.2783 27.1885C68.1311 27.8851 66.9963 28.7117 65.6542 28.8439C64.6513 28.9353 64.0164 30.5834 63.0096 30.6317C60.8997 30.7342 61.0169 29.3449 60.8608 31.5593C60.7708 32.8807 58.8809 35.5095 58.9115 36.8424C58.9428 37.7158 58.7881 38.5809 58.8131 39.457C58.8698 41.1255 59.5397 42.7148 60.6948 43.9213C61.6554 44.9082 62.9048 45.5738 63.7133 46.6986C64.1338 47.2958 64.4255 47.9929 64.915 48.5332C65.4045 49.0735 66.2336 49.3987 66.7799 49.013C67.3262 48.6272 67.3364 47.7923 67.6074 47.1571C67.7737 46.7676 68.0577 46.4398 68.4198 46.2196C68.7818 45.9995 69.2037 45.8979 69.6264 45.9292C70.0653 45.9866 70.4796 46.1651 70.8226 46.4448C71.1655 46.7245 71.4235 47.0943 71.5676 47.5125C71.3118 46.1086 70.6374 44.7931 70.3811 43.3882C70.1248 41.9832 70.4588 40.3048 71.6698 39.7562C72.1897 39.5145 72.8921 39.4496 73.1011 38.8926C73.229 38.5571 73.112 38.1607 73.1613 37.7978C73.4274 36.0197 76.3869 35.5798 77.7873 35.8544Z" fill="#2F2E41"/>
<path d="M64.1755 109.76C64.083 109.133 63.8539 108.533 63.5044 108.004C63.1549 107.475 62.6935 107.029 62.1527 106.697C61.6119 106.365 61.0048 106.156 60.3743 106.084C59.7438 106.012 59.1051 106.079 58.5033 106.28L49.0824 94.0754L46.478 101.65L55.8235 112.078C56.2288 113.066 56.9827 113.871 57.9423 114.34C58.902 114.81 60.0006 114.911 61.0301 114.625C62.0596 114.34 62.9484 113.686 63.5282 112.79C64.1079 111.893 64.3382 110.815 64.1755 109.76Z" fill="#FFB6B6"/>
<path d="M58.4733 60.5109L55.2194 58.209C55.2194 58.209 47.7751 57.783 46.6922 63.8892L33.0421 86.3224L49.9665 109.649L58.1718 101.019L47.8184 88.932L56.5112 72.9868L58.4733 60.5109Z" fill="#6C63FF"/>
<path d="M137.751 64.0655H137.58V59.3935C137.58 59.0384 137.51 58.6868 137.374 58.3587C137.238 58.0306 137.038 57.7325 136.787 57.4814C136.536 57.2303 136.237 57.0312 135.909 56.8953C135.581 56.7594 135.229 56.6895 134.873 56.6895H124.965C124.61 56.6895 124.258 56.7594 123.93 56.8953C123.601 57.0312 123.303 57.2303 123.051 57.4814C122.8 57.7325 122.601 58.0306 122.465 58.3587C122.329 58.6868 122.259 59.0384 122.259 59.3935V85.0247C122.259 85.3798 122.329 85.7314 122.465 86.0595C122.601 86.3875 122.8 86.6856 123.051 86.9367C123.303 87.1878 123.601 87.387 123.93 87.5229C124.258 87.6588 124.61 87.7287 124.965 87.7287H134.873C135.229 87.7287 135.581 87.6588 135.909 87.5229C136.237 87.387 136.536 87.1878 136.787 86.9367C137.038 86.6856 137.238 86.3876 137.374 86.0595C137.51 85.7314 137.58 85.3798 137.58 85.0247V67.3912H137.751V64.0655Z" fill="#3F3D56"/>
<path d="M134.982 57.3931H133.689C133.749 57.5387 133.771 57.6968 133.755 57.8533C133.739 58.0098 133.685 58.16 133.597 58.2905C133.509 58.4211 133.39 58.5281 133.251 58.6021C133.112 58.6761 132.957 58.7148 132.8 58.7148H127.124C126.966 58.7148 126.811 58.6761 126.672 58.6021C126.533 58.5281 126.415 58.4211 126.327 58.2905C126.239 58.16 126.185 58.0098 126.169 57.8533C126.153 57.6968 126.175 57.5387 126.235 57.3931H125.027C124.491 57.3931 123.977 57.6058 123.598 57.9845C123.218 58.3632 123.005 58.8769 123.005 59.4124V85.006C123.005 85.5416 123.218 86.0552 123.598 86.4339C123.977 86.8126 124.491 87.0254 125.027 87.0254H134.982C135.518 87.0254 136.033 86.8126 136.412 86.4339C136.791 86.0552 137.004 85.5416 137.004 85.006V59.4124C137.004 58.8768 136.791 58.3632 136.412 57.9845C136.033 57.6058 135.518 57.3931 134.982 57.3931Z" fill="#6C63FF"/>
<path d="M224.352 48.2788H151.695C151.247 48.2783 150.817 48.1003 150.501 47.7838C150.184 47.4673 150.006 47.0383 150.005 46.5907V1.68807C150.006 1.24053 150.184 0.811453 150.501 0.49499C150.817 0.178526 151.247 0.000512187 151.695 0H224.352C224.8 0.000512189 225.229 0.178526 225.546 0.49499C225.863 0.811453 226.041 1.24053 226.041 1.68807V46.5907C226.041 47.0383 225.863 47.4673 225.546 47.7838C225.229 48.1003 224.8 48.2783 224.352 48.2788Z" fill="white"/>
<path d="M224.352 48.2788H151.695C151.247 48.2783 150.817 48.1003 150.501 47.7838C150.184 47.4673 150.006 47.0383 150.005 46.5907V1.68807C150.006 1.24053 150.184 0.811453 150.501 0.49499C150.817 0.178526 151.247 0.000512187 151.695 0H224.352C224.8 0.000512189 225.229 0.178526 225.546 0.49499C225.863 0.811453 226.041 1.24053 226.041 1.68807V46.5907C226.041 47.0383 225.863 47.4673 225.546 47.7838C225.229 48.1003 224.8 48.2783 224.352 48.2788ZM151.695 0.675228C151.426 0.675522 151.168 0.782327 150.978 0.972209C150.788 1.16209 150.681 1.41954 150.681 1.68807V46.5907C150.681 46.8592 150.788 47.1167 150.978 47.3066C151.168 47.4965 151.426 47.6033 151.695 47.6035H224.352C224.62 47.6033 224.878 47.4965 225.068 47.3066C225.258 47.1167 225.365 46.8592 225.365 46.5907V1.68807C225.365 1.41954 225.258 1.16209 225.068 0.972209C224.878 0.782327 224.62 0.675522 224.352 0.675228H151.695Z" fill="#3F3D56"/>
<path d="M209.989 14.9963H166.057C165.654 14.9963 165.267 14.8362 164.982 14.5513C164.697 14.2664 164.536 13.88 164.536 13.477C164.536 13.0741 164.697 12.6877 164.982 12.4027C165.267 12.1178 165.654 11.9578 166.057 11.9578H209.989C210.393 11.9578 210.779 12.1178 211.065 12.4027C211.35 12.6877 211.51 13.0741 211.51 13.477C211.51 13.88 211.35 14.2664 211.065 14.5513C210.779 14.8362 210.393 14.9963 209.989 14.9963Z" fill="#CCCCCC"/>
<path d="M209.989 25.4624H166.057C165.654 25.4624 165.267 25.3023 164.982 25.0174C164.697 24.7325 164.536 24.346 164.536 23.9431C164.536 23.5402 164.697 23.1537 164.982 22.8688C165.267 22.5839 165.654 22.4238 166.057 22.4238H209.989C210.393 22.4238 210.779 22.5839 211.065 22.8688C211.35 23.1537 211.51 23.5402 211.51 23.9431C211.51 24.346 211.35 24.7325 211.065 25.0174C210.779 25.3023 210.393 25.4624 209.989 25.4624Z" fill="#CCCCCC"/>
<path d="M206.075 42.0564C209.077 42.0564 211.51 39.6255 211.51 36.6269C211.51 33.6283 209.077 31.1975 206.075 31.1975C203.074 31.1975 200.641 33.6283 200.641 36.6269C200.641 39.6255 203.074 42.0564 206.075 42.0564Z" fill="#6C63FF"/>
<path d="M206.225 34.0693V33.552H206.378V34.0693C206.595 34.0787 206.808 34.1307 207.005 34.2224C207.147 34.2894 207.271 34.392 207.362 34.5203C207.447 34.6389 207.492 34.7811 207.492 34.9269C207.495 35.0334 207.459 35.1374 207.391 35.2196C207.362 35.257 207.324 35.2871 207.282 35.3078C207.239 35.3284 207.192 35.339 207.144 35.3387C207.109 35.3394 207.074 35.3328 207.041 35.3193C207.008 35.3058 206.978 35.2858 206.954 35.2604C206.928 35.2351 206.908 35.2049 206.894 35.1715C206.881 35.1382 206.874 35.1024 206.875 35.0664C206.875 35.0161 206.886 34.9663 206.906 34.9201L206.967 34.7908C206.989 34.7367 206.999 34.6788 206.998 34.6206C207 34.5304 206.971 34.4423 206.916 34.3705C206.856 34.2952 206.776 34.239 206.685 34.2088C206.585 34.1762 206.482 34.1557 206.378 34.1475V36.009L206.412 36.0295C206.732 36.1988 207.023 36.4182 207.274 36.6795C207.385 36.8107 207.473 36.9597 207.534 37.1202C207.596 37.2758 207.627 37.4414 207.628 37.6085C207.631 37.8249 207.574 38.0379 207.465 38.2245C207.357 38.4066 207.2 38.5542 207.012 38.6499C206.813 38.7473 206.598 38.8095 206.378 38.8337V39.3884H206.225V38.8439C206.002 38.8421 205.782 38.797 205.577 38.7112C205.373 38.6352 205.192 38.5059 205.055 38.3368C204.933 38.1852 204.868 37.9966 204.869 37.8025C204.865 37.6662 204.907 37.5325 204.988 37.423C205.02 37.3758 205.063 37.3371 205.114 37.3102C205.164 37.2832 205.22 37.2688 205.278 37.2682C205.312 37.267 205.346 37.2729 205.378 37.2854C205.41 37.298 205.439 37.3169 205.463 37.3411C205.487 37.3653 205.507 37.3942 205.519 37.4261C205.532 37.458 205.538 37.4921 205.537 37.5263C205.525 37.6311 205.481 37.7296 205.411 37.8081C205.374 37.8567 205.342 37.9091 205.317 37.9643C205.299 38.0075 205.291 38.0536 205.291 38.1001C205.292 38.2242 205.335 38.3445 205.412 38.4413C205.497 38.5498 205.609 38.6336 205.738 38.6841C205.884 38.7411 206.04 38.7688 206.197 38.7656H206.225V36.5434L206.03 36.4311C205.847 36.3245 205.706 36.236 205.61 36.1656C205.515 36.0973 205.428 36.0198 205.349 35.9342C205.153 35.7259 205.045 35.4507 205.046 35.1651C205.045 34.9873 205.09 34.8122 205.175 34.6564C205.26 34.5009 205.383 34.3701 205.533 34.2769C205.743 34.1507 205.98 34.0794 206.225 34.0693ZM206.225 34.1441C206.093 34.1482 205.963 34.1771 205.841 34.2291C205.72 34.2891 205.621 34.3852 205.556 34.5042C205.483 34.6337 205.446 34.7801 205.448 34.9287C205.447 35.11 205.502 35.2871 205.607 35.4348C205.663 35.5153 205.73 35.5873 205.806 35.6489C205.929 35.7406 206.057 35.8245 206.191 35.9002L206.225 35.9206V34.1441ZM206.378 38.7588C206.466 38.7515 206.552 38.7332 206.636 38.7044C206.703 38.6782 206.766 38.6415 206.822 38.5955C206.927 38.506 207.009 38.3921 207.06 38.2637C207.119 38.122 207.149 37.9697 207.148 37.8161C207.134 37.5696 207.056 37.331 206.921 37.1243C206.786 36.9176 206.598 36.7501 206.378 36.6387V38.7588Z" fill="white"/>
<path d="M148.288 203H0.388189C0.285235 203 0.186497 202.959 0.113698 202.886C0.0408981 202.814 0 202.715 0 202.612C0 202.509 0.0408981 202.411 0.113698 202.338C0.186497 202.265 0.285235 202.224 0.388189 202.224H148.288C148.391 202.224 148.49 202.265 148.563 202.338C148.636 202.411 148.676 202.509 148.676 202.612C148.676 202.715 148.636 202.814 148.563 202.886C148.49 202.959 148.391 203 148.288 203Z" fill="#CACACA"/>
</g>
<defs>
<clipPath id="clip0_40_22098">
<rect width="326" height="203" fill="white"/>
</clipPath>
</defs>
</svg>
