<svg width="384" height="302" viewBox="0 0 384 302" fill="none" xmlns="http://www.w3.org/2000/svg">
<g clip-path="url(#clip0_40_21992)">
<path d="M349.54 275.694C342.179 283.589 333.744 290.405 324.485 295.943C324.272 296.074 324.056 296.197 323.84 296.324L308.849 283.033C309.007 282.887 309.181 282.722 309.369 282.541C320.538 271.917 375.989 197.635 379.684 179.547C379.429 181.054 383.018 240.152 349.54 275.694Z" fill="#F0F0F0"/>
<path d="M327.377 298.507C327.094 298.575 326.805 298.639 326.516 298.696L315.27 288.725C315.49 288.649 315.746 288.557 316.04 288.456C320.865 286.745 335.237 281.578 349.539 275.693C364.907 269.367 380.201 262.22 383.491 257.641C382.785 258.705 361.05 290.965 327.377 298.507Z" fill="#F0F0F0"/>
<path d="M349.332 79.0932H347.731V35.1441C347.731 31.8037 347.074 28.496 345.798 25.4099C344.522 22.3238 342.651 19.5197 340.293 17.1577C337.935 14.7957 335.136 12.9221 332.055 11.6438C328.974 10.3655 325.672 9.70752 322.338 9.70752H229.383C226.049 9.70751 222.747 10.3654 219.666 11.6437C216.585 12.922 213.786 14.7957 211.428 17.1577C209.07 19.5197 207.199 22.3238 205.923 25.4099C204.647 28.496 203.99 31.8036 203.99 35.144V276.252C203.99 279.593 204.647 282.9 205.923 285.986C207.199 289.072 209.07 291.877 211.428 294.239C213.786 296.601 216.585 298.474 219.666 299.753C222.747 301.031 226.049 301.689 229.383 301.689H322.337C325.672 301.689 328.974 301.031 332.055 299.753C335.136 298.474 337.935 296.601 340.293 294.239C342.651 291.877 344.522 289.073 345.798 285.986C347.074 282.9 347.731 279.593 347.731 276.252V110.377H349.332V79.0932Z" fill="#3F3D56"/>
<path d="M342.326 35.3185V276.076C342.326 278.57 341.835 281.041 340.882 283.345C339.928 285.65 338.531 287.744 336.77 289.507C335.009 291.271 332.918 292.67 330.617 293.624C328.316 294.578 325.85 295.068 323.359 295.068H229.958C227.468 295.068 225.002 294.577 222.702 293.622C220.401 292.668 218.311 291.269 216.551 289.505C214.79 287.742 213.393 285.648 212.441 283.344C211.488 281.04 210.998 278.57 210.998 276.076V35.3185C210.998 32.8244 211.488 30.3547 212.441 28.0504C213.393 25.7461 214.79 23.6524 216.551 21.8888C218.311 20.1252 220.401 18.7263 222.702 17.7719C225.002 16.8176 227.468 16.3265 229.958 16.3267H241.292C240.736 17.6971 240.524 19.1834 240.676 20.655C240.827 22.1266 241.338 23.5383 242.162 24.766C242.986 25.9937 244.098 26.9997 245.402 27.6956C246.705 28.3916 248.159 28.7561 249.636 28.7571H302.887C304.365 28.7585 305.82 28.3955 307.125 27.7002C308.429 27.005 309.543 25.9987 310.367 24.7703C311.192 23.5419 311.702 22.1291 311.853 20.6566C312.003 19.184 311.79 17.697 311.231 16.3267H323.359C325.85 16.3258 328.316 16.8163 330.617 17.7704C332.918 18.7244 335.009 20.1232 336.77 21.8868C338.531 23.6504 339.928 25.7444 340.882 28.049C341.835 30.3537 342.326 32.8239 342.326 35.3185Z" fill="white"/>
<path d="M313.272 160.429H231.174C229.736 160.427 228.358 159.855 227.341 158.836C226.324 157.817 225.752 156.437 225.751 154.996V152.292C225.752 150.851 226.324 149.47 227.341 148.452C228.358 147.433 229.736 146.861 231.174 146.859H313.272C314.71 146.861 316.088 147.433 317.105 148.452C318.122 149.47 318.694 150.851 318.695 152.292V154.996C318.694 156.437 318.122 157.817 317.105 158.836C316.088 159.855 314.71 160.427 313.272 160.429Z" fill="#F0F0F0"/>
<path d="M313.272 183.74H231.174C229.736 183.738 228.358 183.166 227.341 182.147C226.324 181.129 225.752 179.748 225.751 178.307V175.603C225.752 174.162 226.324 172.782 227.341 171.763C228.358 170.744 229.736 170.172 231.174 170.17H313.272C314.71 170.172 316.088 170.744 317.105 171.763C318.122 172.782 318.694 174.162 318.695 175.603V178.307C318.694 179.748 318.122 181.129 317.105 182.147C316.088 183.166 314.71 183.738 313.272 183.74Z" fill="#F0F0F0"/>
<path d="M317.378 155.215H235.281C233.771 155.214 232.324 154.612 231.256 153.543C230.189 152.473 229.588 151.023 229.586 149.511V146.806C229.588 145.294 230.189 143.844 231.256 142.775C232.324 141.705 233.771 141.104 235.281 141.102H317.378C318.888 141.104 320.336 141.705 321.403 142.775C322.471 143.844 323.072 145.294 323.073 146.806V149.511C323.072 151.023 322.471 152.473 321.403 153.543C320.336 154.612 318.888 155.214 317.378 155.215ZM235.281 142.188C234.059 142.19 232.887 142.677 232.023 143.542C231.159 144.408 230.672 145.582 230.671 146.806V149.511C230.672 150.735 231.159 151.909 232.023 152.775C232.887 153.64 234.059 154.127 235.281 154.129H317.378C318.601 154.127 319.772 153.64 320.637 152.775C321.501 151.909 321.987 150.735 321.989 149.511V146.806C321.987 145.582 321.501 144.408 320.637 143.542C319.772 142.677 318.601 142.19 317.378 142.188H235.281Z" fill="#3F3D56"/>
<path d="M317.378 178.527H235.281C233.771 178.525 232.324 177.923 231.256 176.854C230.189 175.784 229.588 174.334 229.586 172.822V170.118C229.588 168.605 230.189 167.155 231.256 166.086C232.324 165.016 233.771 164.415 235.281 164.413H317.378C318.888 164.415 320.336 165.016 321.403 166.086C322.471 167.155 323.072 168.605 323.073 170.118V172.822C323.072 174.334 322.471 175.784 321.403 176.854C320.336 177.923 318.888 178.525 317.378 178.527ZM235.281 165.5C234.059 165.501 232.887 165.988 232.023 166.854C231.159 167.72 230.672 168.893 230.671 170.118V172.822C230.672 174.046 231.159 175.22 232.023 176.086C232.887 176.952 234.059 177.439 235.281 177.44H317.378C318.601 177.439 319.772 176.952 320.637 176.086C321.501 175.22 321.987 174.046 321.989 172.822V170.118C321.987 168.893 321.501 167.72 320.637 166.854C319.772 165.988 318.601 165.501 317.378 165.5H235.281Z" fill="#3F3D56"/>
<path d="M342.326 35.3185V87.6865C334.019 89.8757 325.321 90.1269 316.902 88.4207C308.483 86.7145 300.567 83.0965 293.763 77.845C286.959 72.5935 281.448 65.8484 277.654 58.1288C273.861 50.4092 271.886 41.9207 271.881 33.3165C271.881 31.7807 271.942 30.2609 272.066 28.7571H302.887C304.365 28.7585 305.82 28.3955 307.125 27.7002C308.429 27.005 309.543 25.9987 310.367 24.7703C311.192 23.5419 311.702 22.1291 311.853 20.6566C312.003 19.184 311.79 17.697 311.231 16.3267H323.359C325.85 16.3258 328.316 16.8163 330.617 17.7704C332.918 18.7244 335.009 20.1232 336.77 21.8868C338.531 23.6505 339.928 25.7444 340.882 28.049C341.835 30.3537 342.326 32.8239 342.326 35.3185Z" fill="#F0F0F0"/>
<path d="M258.192 291.797C258.192 292.901 258.15 293.991 258.062 295.068H229.958C227.468 295.068 225.002 294.577 222.702 293.622C220.401 292.668 218.311 291.269 216.551 289.506C214.79 287.742 213.393 285.648 212.441 283.344C211.488 281.04 210.998 278.57 210.998 276.076V250.324C216.889 249.556 222.875 250.055 228.559 251.788C234.242 253.52 239.492 256.446 243.957 260.371C248.423 264.295 252.002 269.128 254.457 274.547C256.911 279.966 258.184 285.847 258.192 291.797Z" fill="#6C63FF"/>
<path d="M31.5234 246.612C32.3131 246.96 33.2084 246.98 34.0127 246.667C34.8171 246.355 35.4649 245.736 35.8142 244.946L61.1318 187.468C61.7112 186.153 61.8883 184.695 61.6405 183.279C61.3928 181.863 60.7314 180.552 59.7399 179.512C58.7485 178.473 57.4715 177.751 56.0706 177.439C54.6696 177.126 53.2076 177.237 51.8694 177.756C50.3234 178.348 49.0296 179.457 48.2083 180.897C48.0776 181.124 47.9592 181.359 47.8533 181.599L22.5357 239.077C22.3632 239.468 22.2694 239.89 22.2596 240.318C22.2498 240.746 22.3243 241.172 22.4788 241.571C22.6333 241.97 22.8647 242.335 23.16 242.644C23.4552 242.954 23.8084 243.202 24.1994 243.375L31.5234 246.612Z" fill="#6C63FF"/>
<path d="M60.0924 211.065L35.05 205.49L41.2483 189.066C42.3042 185.051 44.7615 181.549 48.1745 179.193C51.5876 176.838 55.7302 175.786 59.8511 176.229L60.0924 176.255L60.0924 211.065Z" fill="#2F2E41"/>
<path d="M110.674 247.434C109.937 247.433 109.217 247.218 108.6 246.815C107.983 246.412 107.495 245.839 107.196 245.165L81.8788 187.687C81.0736 185.858 80.9987 183.79 81.6696 181.908C82.3405 180.025 83.706 178.472 85.4853 177.568C87.2646 176.663 89.3224 176.476 91.2352 177.045C93.148 177.614 94.7704 178.895 95.7686 180.626C95.9089 180.87 96.0361 181.122 96.1497 181.38L121.467 238.857C121.874 239.78 121.898 240.827 121.534 241.767C121.17 242.708 120.448 243.465 119.526 243.872L111.954 247.218L111.95 247.21C111.541 247.358 111.109 247.434 110.674 247.434Z" fill="#6C63FF"/>
<path d="M75.6531 227.697C74.7904 227.697 73.9632 228.041 73.3531 228.652C72.743 229.263 72.3999 230.092 72.3989 230.956V297.789C72.3999 298.654 72.743 299.482 73.3531 300.093C73.9632 300.704 74.7904 301.048 75.6531 301.049H83.6583C84.5211 301.048 85.3483 300.704 85.9583 300.093C86.5684 299.482 86.9116 298.654 86.9125 297.789V230.956C86.9116 230.092 86.5684 229.263 85.9583 228.652C85.3483 228.041 84.5211 227.697 83.6583 227.697H75.6531Z" fill="#6C63FF"/>
<path d="M59.82 227.697C58.9572 227.697 58.13 228.041 57.5199 228.652C56.9099 229.263 56.5667 230.092 56.5657 230.956V297.789C56.5667 298.654 56.9099 299.482 57.5199 300.093C58.13 300.704 58.9572 301.048 59.82 301.049H67.8253C68.688 301.048 69.5152 300.704 70.1253 300.093C70.7354 299.482 71.0785 298.654 71.0795 297.789V230.956C71.0785 230.092 70.7354 229.263 70.1253 228.652C69.5152 228.041 68.688 227.697 67.8253 227.697H59.82Z" fill="#6C63FF"/>
<path d="M71.5 157.677C86.7768 157.677 99.161 145.272 99.161 129.969C99.161 114.667 86.7768 102.261 71.5 102.261C56.2232 102.261 43.839 114.667 43.839 129.969C43.839 145.272 56.2232 157.677 71.5 157.677Z" fill="#6C63FF"/>
<path d="M80.7051 141.601C82.4981 141.551 84.7296 141.488 86.4488 140.23C86.9607 139.84 87.3813 139.343 87.6811 138.773C87.981 138.203 88.1527 137.574 88.1844 136.931C88.2155 136.474 88.1406 136.015 87.9656 135.592C87.7905 135.169 87.5201 134.791 87.1754 134.49C86.2775 133.73 84.9663 133.552 83.5533 133.968L85.0173 123.251L83.9426 123.103L82.2216 135.702L83.119 135.29C84.1595 134.812 85.5877 134.568 86.4752 135.32C86.6932 135.516 86.8629 135.76 86.9714 136.033C87.0798 136.306 87.124 136.6 87.1004 136.893C87.0741 137.372 86.9451 137.839 86.7223 138.264C86.4994 138.688 86.1879 139.06 85.8089 139.353C84.471 140.332 82.6923 140.458 80.6749 140.514L80.7051 141.601Z" fill="#2F2E41"/>
<path d="M96.1743 124.175H90.3321V125.262H96.1743V124.175Z" fill="#2F2E41"/>
<path d="M77.7336 124.175H71.8914V125.262H77.7336V124.175Z" fill="#2F2E41"/>
<path d="M98.908 247.771L88.9522 174.97C88.8455 174.189 88.46 173.474 87.8673 172.956C87.2745 172.438 86.5145 172.153 85.7279 172.153H78.2131C78.2444 171.973 78.2607 171.791 78.2619 171.609V168.893C78.2618 168.028 77.919 167.199 77.3087 166.588C76.6984 165.977 75.8707 165.633 75.0076 165.633H68.4991C67.6361 165.633 66.8083 165.977 66.1981 166.588C65.5878 167.199 65.2449 168.028 65.2449 168.893V171.609C65.246 171.791 65.2623 171.973 65.2936 172.153H57.7788C56.9922 172.153 56.2322 172.438 55.6395 172.956C55.0467 173.474 54.6613 174.189 54.5545 174.97L44.5987 247.771C44.5356 248.233 44.5719 248.702 44.705 249.148C44.8381 249.594 45.065 250.006 45.3705 250.357C45.6759 250.708 46.0529 250.989 46.4758 251.181C46.8988 251.374 47.3581 251.474 47.8227 251.474H95.684C96.1486 251.474 96.6079 251.374 97.0309 251.181C97.4539 250.989 97.8308 250.708 98.1362 250.357C98.4417 250.006 98.6686 249.594 98.8017 249.148C98.9348 248.702 98.9711 248.233 98.908 247.771Z" fill="#2F2E41"/>
<path d="M83.4144 211.065V176.256L83.6557 176.229C87.7816 175.787 91.9289 176.842 95.3441 179.203C98.7593 181.564 101.216 185.073 102.267 189.094L108.457 205.491L83.4144 211.065Z" fill="#2F2E41"/>
<path d="M70.1071 158.542L50.9746 151.103C47.8461 149.887 44.7 148.707 41.588 147.449C40.255 146.984 39.0271 146.259 37.975 145.316C37.0591 144.345 36.4348 143.135 36.1737 141.824C35.5102 139.015 35.6301 135.943 35.6775 133.076C35.7142 129.939 35.9719 126.809 36.4486 123.709C37.2841 117.883 39.2462 112.277 42.225 107.204C47.5905 98.385 56.835 91.7502 67.4686 92.2798C72.3916 92.5249 77.3428 94.2944 81.0005 97.666C81.382 98.1227 81.8101 98.5383 82.2778 98.906C82.6029 99.0282 82.9566 99.0519 83.2951 98.9744C83.7414 98.9457 84.1882 98.9237 84.6352 98.9086C86.1865 98.843 87.7406 98.9083 89.2809 99.1038C92.0881 99.4076 94.7486 100.514 96.9449 102.291C98.7727 103.867 100.26 106.09 100.413 108.561C100.487 109.695 100.3 110.832 99.8658 111.882C99.4319 112.932 98.7629 113.869 97.9104 114.619C95.6278 116.546 92.3711 115.869 89.633 115.723L79.6025 115.191L74.5204 114.921C73.474 114.866 73.477 116.496 74.5204 116.551L88.0282 117.268C90.1989 117.383 92.436 117.666 94.6085 117.535C96.2777 117.46 97.8716 116.817 99.1282 115.714C100.276 114.658 101.131 113.322 101.609 111.837C102.088 110.351 102.174 108.767 101.86 107.238C101.163 103.903 98.686 101.145 95.7817 99.5041C91.8299 97.2713 87.1102 97.0573 82.6884 97.3874L83.2637 97.6261C78.2618 92.2485 70.6001 89.978 63.4073 90.7726C55.8128 91.6115 49.0582 95.8555 44.2051 101.659C38.7941 108.129 35.8455 116.197 34.6991 124.493C34.1026 128.973 33.9062 133.496 34.1123 138.01C34.1038 140.001 34.4438 141.978 35.1169 143.851C35.8849 145.675 37.2734 147.166 39.0356 148.06C41.0559 149.037 43.1329 149.892 45.2555 150.619L52.3043 153.36L66.1501 158.743L69.6745 160.113C70.6513 160.493 71.0744 158.918 70.1071 158.542Z" fill="#2F2E41"/>
<path d="M40.0246 103.154C38.3619 103.154 36.7365 102.66 35.354 101.735C33.9715 100.809 32.894 99.4942 32.2577 97.9555C31.6214 96.4167 31.455 94.7235 31.7793 93.09C32.1037 91.4565 32.9044 89.956 34.0801 88.7783C35.2558 87.6005 36.7537 86.7985 38.3845 86.4736C40.0153 86.1486 41.7056 86.3154 43.2417 86.9528C44.7779 87.5902 46.0908 88.6695 47.0146 90.0544C47.9383 91.4392 48.4314 93.0673 48.4314 94.7328C48.4289 96.9655 47.5423 99.106 45.9663 100.685C44.3903 102.263 42.2534 103.151 40.0246 103.154ZM40.0246 87.9417C38.6837 87.9417 37.3729 88.34 36.258 89.0862C35.1431 89.8324 34.2741 90.893 33.761 92.134C33.2479 93.3749 33.1136 94.7404 33.3752 96.0577C33.6368 97.3751 34.2825 98.5852 35.2306 99.5349C36.1788 100.485 37.3868 101.132 38.7019 101.394C40.0171 101.656 41.3802 101.521 42.619 101.007C43.8579 100.493 44.9167 99.6226 45.6617 98.5058C46.4066 97.389 46.8042 96.076 46.8042 94.7328C46.8022 92.9323 46.0873 91.2061 44.8163 89.933C43.5453 88.6598 41.822 87.9437 40.0246 87.9417Z" fill="#2F2E41"/>
<path d="M180.556 155.34L162.36 141.4L148.443 159.627L166.639 173.567L180.556 155.34Z" fill="#F0F0F0"/>
<path d="M77.7195 30.8958C80.5945 30.8935 83.43 31.5657 85.9991 32.8584C88.5682 34.1511 90.7994 36.0284 92.514 38.3401L103.139 24.4243L71.2589 0L46.8763 31.9343L60.6164 42.4611C61.9915 39.0452 64.3545 36.1189 67.402 34.0581C70.4496 31.9973 74.0425 30.896 77.7195 30.8958Z" fill="#F0F0F0"/>
<path d="M383.458 302H0.542373C0.398527 302 0.260572 301.943 0.158857 301.841C0.0571423 301.739 0 301.601 0 301.457C0 301.313 0.0571423 301.174 0.158857 301.072C0.260572 300.971 0.398527 300.913 0.542373 300.913H383.458C383.601 300.913 383.739 300.971 383.841 301.072C383.943 301.174 384 301.313 384 301.457C384 301.601 383.943 301.739 383.841 301.841C383.739 301.943 383.601 302 383.458 302Z" fill="#3F3D56"/>
<path d="M290 211.851H251.024C249.586 211.849 248.207 211.276 247.19 210.258C246.174 209.239 245.602 207.858 245.6 206.418V203.713C245.602 202.273 246.174 200.892 247.19 199.874C248.207 198.855 249.586 198.282 251.024 198.281H290C291.438 198.282 292.816 198.855 293.833 199.874C294.85 200.892 295.422 202.273 295.424 203.713V206.418C295.422 207.858 294.85 209.239 293.833 210.258C292.816 211.276 291.438 211.849 290 211.851Z" fill="#6C63FF"/>
<path d="M294.107 206.637H255.131C253.621 206.636 252.173 206.034 251.106 204.965C250.038 203.895 249.437 202.445 249.436 200.933V198.229C249.437 196.716 250.038 195.266 251.106 194.197C252.173 193.127 253.621 192.526 255.131 192.524H294.107C295.617 192.526 297.064 193.127 298.132 194.197C299.199 195.266 299.8 196.716 299.802 198.229V200.933C299.8 202.445 299.199 203.895 298.132 204.965C297.064 206.034 295.617 206.636 294.107 206.637ZM255.131 193.611C253.908 193.612 252.737 194.099 251.872 194.965C251.008 195.83 250.522 197.004 250.52 198.229V200.933C250.522 202.157 251.008 203.331 251.872 204.197C252.737 205.062 253.908 205.549 255.131 205.551H294.107C295.329 205.549 296.501 205.062 297.365 204.197C298.229 203.331 298.716 202.157 298.717 200.933V198.229C298.716 197.004 298.229 195.83 297.365 194.965C296.501 194.099 295.329 193.612 294.107 193.611H255.131Z" fill="#3F3D56"/>
</g>
<defs>
<clipPath id="clip0_40_21992">
<rect width="384" height="302" fill="white"/>
</clipPath>
</defs>
</svg>
