<svg width="255" height="209" viewBox="0 0 255 209" fill="none" xmlns="http://www.w3.org/2000/svg">
<g id="Number input" clip-path="url(#clip0_40_22025)">
<path id="Vector" d="M207.213 21.0055C208.836 14.383 207.293 6.65955 202.05 2.30347C201.948 9.71786 199.227 16.857 194.37 22.4578C192.489 24.611 190.173 26.8099 190.081 29.6682C190.025 31.4467 190.892 33.1549 192.088 34.472C193.284 35.7892 194.792 36.775 196.283 37.7457L196.502 38.1321C201.3 33.2897 205.59 27.628 207.213 21.0055Z" fill="#F0F0F0"/>
<path id="Vector_2" d="M201.945 2.40021C203.956 7.67339 204.255 13.4464 202.799 18.8993C202.507 20.0788 202.03 21.2047 201.387 22.2357C200.729 23.2198 199.819 24.0095 198.752 24.5226C197.767 25.0211 196.701 25.4169 195.854 26.1463C195.426 26.5261 195.083 26.9921 194.848 27.5138C194.613 28.0355 194.49 28.6011 194.489 29.1734C194.448 30.5994 194.921 31.9551 195.431 33.2648C195.996 34.7189 196.607 36.2203 196.476 37.8124C196.46 38.0053 196.76 38.0186 196.776 37.826C197.003 35.0561 195.123 32.7164 194.825 30.0297C194.686 28.7761 194.923 27.4729 195.85 26.5589C196.66 25.7596 197.758 25.3506 198.76 24.8545C199.808 24.3691 200.722 23.6344 201.42 22.7144C202.114 21.7195 202.633 20.6138 202.955 19.4446C203.723 16.8241 204.075 14.099 203.997 11.3692C203.925 8.25328 203.321 5.17258 202.211 2.26042C202.142 2.0802 201.876 2.22117 201.945 2.40021Z" fill="white"/>
<path id="Vector_3" d="M203.371 17.1711C204.319 17.2912 205.278 17.0703 206.078 16.5481C206.878 16.0258 207.466 15.236 207.738 14.3199C207.792 14.1343 207.506 14.0411 207.452 14.2269C207.201 15.0805 206.653 15.8161 205.907 16.301C205.161 16.7858 204.266 16.9879 203.385 16.8709C203.193 16.8457 203.181 17.146 203.371 17.1711Z" fill="white"/>
<path id="Vector_4" d="M199.285 24.3357C198.075 22.8026 197.487 20.8695 197.638 18.9219C197.653 18.7289 197.353 18.7156 197.338 18.9083C197.184 20.9353 197.8 22.9457 199.063 24.5384C199.183 24.6901 199.404 24.4866 199.285 24.3357Z" fill="white"/>
<path id="Vector_5" d="M203.563 8.42C203.187 8.44998 202.809 8.38597 202.463 8.23373C202.118 8.08148 201.816 7.84577 201.584 7.54777C201.465 7.39458 201.244 7.59826 201.362 7.75044C201.62 8.0785 201.954 8.3384 202.335 8.50745C202.717 8.6765 203.133 8.74956 203.55 8.72022C203.589 8.72075 203.627 8.70622 203.656 8.6796C203.685 8.65298 203.703 8.61627 203.706 8.57691C203.708 8.53715 203.694 8.49837 203.667 8.46898C203.64 8.4396 203.603 8.422 203.563 8.42Z" fill="white"/>
<path id="Vector_6" d="M179.376 6.59058C179.447 6.68833 179.518 6.78608 179.589 6.88624C180.54 8.20538 181.382 9.59966 182.108 11.0553C182.166 11.167 182.223 11.281 182.277 11.3941C183.988 14.9197 185.029 18.7324 185.349 22.6383C185.474 24.1927 185.481 25.7544 185.37 27.3099C185.217 29.4581 184.879 31.7751 185.428 33.7893C185.482 34.0001 185.55 34.2073 185.631 34.4096L196.014 38.3692C196.042 38.3663 196.069 38.3659 196.097 38.3631L196.505 38.5401C196.516 38.4603 196.526 38.3773 196.537 38.2975C196.544 38.2512 196.549 38.204 196.555 38.1578C196.559 38.1266 196.563 38.0954 196.568 38.0676C196.569 38.0572 196.57 38.0468 196.571 38.0388C196.576 38.0109 196.578 37.9845 196.582 37.959C196.64 37.495 196.694 37.0298 196.745 36.5634C196.746 36.5611 196.746 36.5611 196.744 36.5578C197.168 33.0077 197.169 29.4198 196.747 25.8695C196.733 25.7637 196.72 25.6556 196.701 25.548C196.483 23.9644 196.136 22.4013 195.663 20.8742C195.401 20.0389 195.098 19.2174 194.753 18.4128C193.859 16.3355 192.643 14.4119 191.151 12.7126C188.177 9.3253 184.153 6.92749 179.715 6.61138C179.602 6.60339 179.49 6.59619 179.376 6.59058Z" fill="#F0F0F0"/>
<path id="Vector_7" d="M179.349 6.73148C184.128 9.73055 187.841 14.1599 189.96 19.3903C190.436 20.5082 190.734 21.6942 190.841 22.9047C190.907 24.0872 190.655 25.2659 190.112 26.3183C189.626 27.3097 189.013 28.2675 188.776 29.36C188.663 29.9211 188.669 30.4997 188.795 31.058C188.922 31.6163 189.164 32.1416 189.507 32.5995C190.333 33.7628 191.527 34.5599 192.722 35.2988C194.048 36.1193 195.439 36.9504 196.293 38.3003C196.396 38.4638 196.644 38.2937 196.54 38.1304C195.055 35.7818 192.146 35.0463 190.291 33.0808C189.425 32.1637 188.831 30.98 189.021 29.6922C189.186 28.566 189.817 27.5778 190.319 26.5782C190.863 25.5594 191.151 24.4225 191.155 23.267C191.11 22.055 190.859 20.8595 190.413 19.7317C189.449 17.1767 188.09 14.7892 186.385 12.6567C184.452 10.212 182.116 8.11614 179.477 6.45966C179.314 6.35721 179.187 6.62967 179.349 6.73148Z" fill="white"/>
<path id="Vector_8" d="M189.377 17.6659C190.206 17.191 190.839 16.4368 191.163 15.5379C191.487 14.6391 191.482 13.6542 191.147 12.7591C191.079 12.5782 190.795 12.6759 190.863 12.857C191.176 13.69 191.181 14.6074 190.878 15.4438C190.574 16.2802 189.981 16.9804 189.207 17.418C189.039 17.5133 189.21 17.7607 189.377 17.6659Z" fill="white"/>
<path id="Vector_9" d="M190.425 25.848C188.537 25.3527 186.904 24.1633 185.853 22.5171C185.749 22.3539 185.501 22.524 185.605 22.687C186.702 24.3981 188.404 25.6323 190.37 26.1434C190.558 26.192 190.612 25.8963 190.425 25.848Z" fill="white"/>
<path id="Vector_10" d="M184.264 10.5629C183.981 10.8135 183.641 10.99 183.274 11.0765C182.906 11.1631 182.523 11.157 182.158 11.0587C181.972 11.0078 181.918 11.3035 182.103 11.3542C182.507 11.4608 182.93 11.4671 183.336 11.3723C183.742 11.2776 184.119 11.0848 184.434 10.8108C184.465 10.7874 184.487 10.7528 184.494 10.714C184.502 10.6752 184.494 10.6351 184.473 10.6019C184.45 10.5692 184.415 10.5467 184.376 10.5394C184.337 10.5321 184.297 10.5405 184.264 10.5629Z" fill="white"/>
<path id="Vector_11" d="M165.648 156.184C130.838 156.184 102.518 127.851 102.518 93.0249C102.518 58.1985 130.838 29.8652 165.648 29.8652C169.328 29.8648 173.001 30.1832 176.626 30.817C176.671 30.8248 176.714 30.8415 176.753 30.866C176.792 30.8906 176.826 30.9225 176.852 30.96C176.878 30.9976 176.897 31.0399 176.907 31.0847C176.917 31.1295 176.918 31.1759 176.91 31.2211C176.902 31.2663 176.886 31.3095 176.861 31.3482C176.836 31.3869 176.804 31.4204 176.767 31.4467C176.729 31.473 176.687 31.4916 176.642 31.5015C176.597 31.5114 176.551 31.5124 176.506 31.5043C172.92 30.8776 169.287 30.5627 165.648 30.5631C131.223 30.5631 103.216 58.5833 103.216 93.0249C103.216 127.466 131.223 155.487 165.648 155.487C200.072 155.487 228.079 127.466 228.079 93.0249C228.095 77.4576 222.285 62.4486 211.793 50.9526C211.731 50.8841 211.699 50.7939 211.704 50.7018C211.708 50.6097 211.749 50.5232 211.817 50.461C211.885 50.3989 211.975 50.3663 212.067 50.3703C212.159 50.3742 212.246 50.4145 212.308 50.4823C222.917 62.1068 228.792 77.2836 228.777 93.0249C228.777 127.851 200.457 156.184 165.648 156.184Z" fill="#E4E4E4"/>
<path id="Vector_12" d="M193.483 51.5268C200.381 51.5268 205.973 45.9321 205.973 39.0306C205.973 32.1292 200.381 26.5344 193.483 26.5344C186.585 26.5344 180.993 32.1292 180.993 39.0306C180.993 45.9321 186.585 51.5268 193.483 51.5268Z" fill="#6C63FF"/>
<path id="Vector_13" d="M191.779 45.5343C191.563 45.5343 191.35 45.484 191.158 45.3875C190.965 45.291 190.797 45.1508 190.667 44.9782L187.26 40.4325C187.15 40.2865 187.071 40.1203 187.026 39.9435C186.98 39.7667 186.97 39.5827 186.996 39.402C187.022 39.2213 187.083 39.0474 187.176 38.8903C187.269 38.7333 187.392 38.5961 187.538 38.4866C187.684 38.377 187.85 38.2973 188.027 38.252C188.203 38.2068 188.387 38.1967 188.568 38.2226C188.749 38.2484 188.922 38.3095 189.079 38.4025C189.236 38.4955 189.373 38.6186 189.483 38.7646L191.712 41.7382L197.438 33.1457C197.643 32.8402 197.961 32.6284 198.321 32.5568C198.682 32.4853 199.056 32.5597 199.362 32.7637C199.668 32.9678 199.881 33.2849 199.954 33.6456C200.026 34.0063 199.953 34.381 199.75 34.6878L192.935 44.9152C192.812 45.1002 192.646 45.2529 192.451 45.3605C192.257 45.4682 192.04 45.5276 191.817 45.5338C191.805 45.534 191.792 45.5343 191.779 45.5343Z" fill="white"/>
<path id="Vector_14" d="M164.023 83.2234L144.762 29.6142L145.251 29.4386L141.709 19.5784L141.22 19.7542L135.306 3.29453C135.085 2.67977 134.746 2.11456 134.306 1.63116C133.867 1.14777 133.337 0.755652 132.747 0.477206C132.156 0.198759 131.516 0.0394323 130.864 0.0083278C130.212 -0.0227767 129.56 0.0749484 128.945 0.295922L94.1258 12.818C93.5113 13.039 92.9463 13.3789 92.4632 13.8182C91.98 14.2576 91.5881 14.7879 91.3097 15.3789C91.0314 15.9698 90.8721 16.6098 90.841 17.2624C90.8099 17.9149 90.9076 18.5671 91.1284 19.1819L95.2518 30.6586L94.4801 30.9559L97.1122 37.7943L97.73 37.5562L98.2766 39.0774L97.6191 39.3307L100.251 46.1691L100.755 45.9751L119.846 99.1108C120.065 99.7263 120.405 100.292 120.844 100.776C121.283 101.26 121.813 101.653 122.404 101.932C122.995 102.21 123.635 102.369 124.287 102.4C124.94 102.43 125.592 102.332 126.207 102.11L161.026 89.5875C162.266 89.1399 163.278 88.2186 163.84 87.0255C164.402 85.8324 164.468 84.4651 164.023 83.2234Z" fill="#3F3D56"/>
<path id="Vector_15" d="M124.375 100.343C123.885 100.342 123.407 100.19 123.006 99.907C122.605 99.6246 122.301 99.2254 122.135 98.7639L93.1145 17.9914C92.9008 17.3965 92.9321 16.7411 93.2014 16.1692C93.4707 15.5974 93.9561 15.1559 94.5507 14.9421L101.959 12.2778L101.948 12.5371C101.929 12.9873 102.021 13.4352 102.216 13.8414C102.411 14.2477 102.702 14.5998 103.065 14.8667C103.428 15.1336 103.851 15.3071 104.296 15.372C104.742 15.4369 105.197 15.3911 105.621 15.2387L122.062 9.32586C122.459 9.14393 122.808 8.87109 123.08 8.52942C123.352 8.18774 123.539 7.78683 123.628 7.3591C123.715 6.93851 123.702 6.5032 123.589 6.0887C123.476 5.6742 123.267 5.29226 122.979 4.97404L122.805 4.78099L130.458 2.02877C131.052 1.81581 131.707 1.8475 132.279 2.11688C132.85 2.38627 133.291 2.87136 133.506 3.46579L161.194 80.5295C161.759 82.1082 161.675 83.8467 160.96 85.3636C160.246 86.8805 158.959 88.0519 157.383 88.6209L125.183 100.201C124.924 100.294 124.651 100.342 124.375 100.343Z" fill="white"/>
<path id="Vector_16" d="M121.538 43.0522C126.739 43.0522 130.956 38.834 130.956 33.6306C130.956 28.4272 126.739 24.209 121.538 24.209C116.338 24.209 112.121 28.4272 112.121 33.6306C112.121 38.834 116.338 43.0522 121.538 43.0522Z" fill="#6C63FF"/>
<path id="Vector_17" d="M144.874 47.3318L112.262 59.06C112.16 59.0969 112.052 59.1133 111.944 59.1083C111.836 59.1034 111.729 59.0771 111.631 59.031C111.533 58.9849 111.445 58.9199 111.372 58.8398C111.3 58.7596 111.243 58.6658 111.206 58.5639C111.17 58.4619 111.154 58.3536 111.159 58.2454C111.164 58.1371 111.191 58.031 111.237 57.933C111.283 57.835 111.348 57.7471 111.429 57.6743C111.509 57.6015 111.603 57.5453 111.705 57.5089L144.317 45.7808C144.522 45.7075 144.748 45.7187 144.945 45.812C145.142 45.9052 145.295 46.0729 145.368 46.2783C145.442 46.4836 145.431 46.7098 145.339 46.9073C145.246 47.1049 145.079 47.2575 144.874 47.3318Z" fill="#E6E6E6"/>
<path id="Vector_18" d="M135.189 54.768L124.462 58.6257C124.36 58.6625 124.252 58.6789 124.144 58.6739C124.036 58.6689 123.93 58.6426 123.832 58.5965C123.734 58.5504 123.646 58.4854 123.573 58.4053C123.5 58.3251 123.444 58.2314 123.407 58.1294C123.37 58.0274 123.354 57.9192 123.359 57.811C123.365 57.7028 123.391 57.5966 123.437 57.4986C123.484 57.4006 123.549 57.3128 123.629 57.24C123.709 57.1672 123.803 57.111 123.905 57.0745L134.632 53.2168C134.838 53.1429 135.064 53.1537 135.262 53.2468C135.459 53.34 135.612 53.5079 135.686 53.7136C135.76 53.9193 135.749 54.1459 135.656 54.3437C135.563 54.5414 135.395 54.694 135.189 54.768Z" fill="#E6E6E6"/>
<path id="Vector_19" d="M137.741 61.8695L127.014 65.7272C126.912 65.7638 126.804 65.78 126.696 65.7749C126.588 65.7697 126.482 65.7433 126.384 65.6972C126.286 65.6511 126.198 65.5861 126.125 65.506C126.053 65.4259 125.996 65.3323 125.96 65.2304C125.923 65.1286 125.907 65.0205 125.912 64.9124C125.917 64.8043 125.944 64.6983 125.99 64.6004C126.036 64.5025 126.101 64.4146 126.181 64.3418C126.261 64.269 126.355 64.2127 126.456 64.1761L137.183 60.3184C137.389 60.2444 137.615 60.2552 137.813 60.3484C138.011 60.4416 138.163 60.6095 138.237 60.8152C138.311 61.0209 138.3 61.2475 138.207 61.4452C138.114 61.643 137.946 61.7956 137.741 61.8695Z" fill="#E6E6E6"/>
<path id="Vector_20" d="M139.047 65.5068L128.321 69.3645C128.219 69.4014 128.11 69.4179 128.002 69.4129C127.894 69.408 127.788 69.3817 127.69 69.3356C127.592 69.2896 127.504 69.2246 127.431 69.1444C127.358 69.0642 127.301 68.9705 127.265 68.8685C127.228 68.7664 127.212 68.6582 127.217 68.5499C127.222 68.4416 127.249 68.3355 127.295 68.2375C127.341 68.1395 127.407 68.0516 127.487 67.9788C127.567 67.906 127.661 67.8498 127.763 67.8134L138.49 63.9557C138.592 63.9188 138.7 63.9024 138.808 63.9074C138.917 63.9123 139.023 63.9386 139.121 63.9847C139.219 64.0308 139.307 64.0958 139.38 64.1759C139.453 64.2561 139.509 64.3499 139.546 64.4518C139.582 64.5538 139.599 64.6621 139.593 64.7703C139.588 64.8786 139.562 64.9847 139.515 65.0827C139.469 65.1807 139.404 65.2686 139.324 65.3414C139.243 65.4142 139.149 65.4704 139.047 65.5068Z" fill="#E6E6E6"/>
<path id="Vector_21" d="M142.463 56.1054L119.704 64.2902C119.602 64.3271 119.494 64.3435 119.386 64.3385C119.278 64.3336 119.172 64.3073 119.073 64.2612C118.975 64.2151 118.887 64.1501 118.814 64.07C118.742 63.9898 118.685 63.8961 118.649 63.7941C118.612 63.6921 118.596 63.5838 118.601 63.4756C118.606 63.3673 118.633 63.2612 118.679 63.1632C118.725 63.0652 118.79 62.9773 118.871 62.9045C118.951 62.8318 119.045 62.7755 119.147 62.7391L141.906 54.5544C142.008 54.5175 142.116 54.501 142.224 54.506C142.332 54.511 142.438 54.5373 142.536 54.5833C142.634 54.6294 142.722 54.6944 142.795 54.7746C142.868 54.8547 142.925 54.9485 142.961 55.0505C142.998 55.1525 143.014 55.2607 143.009 55.369C143.004 55.4772 142.977 55.5834 142.931 55.6814C142.885 55.7794 142.819 55.8673 142.739 55.94C142.659 56.0128 142.565 56.069 142.463 56.1054Z" fill="#E6E6E6"/>
<path id="Vector_22" d="M137.879 74.3363L133.984 75.737C133.634 75.8625 133.249 75.8439 132.914 75.6854C132.578 75.527 132.319 75.2416 132.193 74.892C132.067 74.5424 132.086 74.1572 132.244 73.821C132.402 73.4849 132.687 73.2254 133.036 73.0994L136.931 71.6987C137.281 71.5733 137.666 71.5919 138.002 71.7503C138.337 71.9088 138.597 72.1942 138.722 72.5438C138.848 72.8934 138.83 73.2786 138.671 73.6147C138.513 73.9509 138.228 74.2104 137.879 74.3363Z" fill="#6C63FF"/>
<path id="Vector_23" d="M107.186 12.5389C107.485 12.5389 107.727 12.2963 107.727 11.997C107.727 11.6977 107.485 11.4551 107.186 11.4551C106.887 11.4551 106.644 11.6977 106.644 11.997C106.644 12.2963 106.887 12.5389 107.186 12.5389Z" fill="white"/>
<path id="Vector_24" d="M44.8939 42.4754C50.9646 35.326 60.8146 30.8203 69.8957 33.1563C61.7167 39.2483 55.9552 48.0383 53.6305 57.9712C52.7478 61.8051 52.165 66.1613 49.0537 68.5675C47.1178 70.0647 44.5148 70.474 42.0831 70.2023C39.6513 69.9305 37.3368 69.0428 35.0534 68.1628L34.4463 68.2302C35.9735 58.9745 38.8231 49.6248 44.8939 42.4754Z" fill="#F0F0F0"/>
<path id="Vector_25" d="M69.8728 33.3516C62.3759 35.3602 55.7022 39.681 50.7995 45.7004C49.7211 46.9775 48.8506 48.4167 48.2201 49.965C47.6547 51.493 47.5085 53.1447 47.7969 54.7484C48.0357 56.2491 48.4537 57.7565 48.3238 59.2892C48.2456 60.0727 48.0028 60.8309 47.6113 61.5139C47.2197 62.197 46.6882 62.7895 46.0517 63.2527C44.4957 64.448 42.6032 65.0127 40.7334 65.5006C38.6572 66.0422 36.4922 66.572 34.8236 68.0013C34.6214 68.1745 34.3647 67.8505 34.5665 67.6776C37.4696 65.1908 41.5925 65.4017 44.8266 63.5683C46.3357 62.7128 47.5962 61.3971 47.8677 59.6269C48.1052 58.0789 47.6755 56.5241 47.4205 55.0067C47.1163 53.4464 47.1985 51.8352 47.6601 50.3141C48.2098 48.7387 49.0234 47.2683 50.0661 45.966C52.3669 42.9967 55.12 40.4077 58.2246 38.294C61.7545 35.8619 65.6742 34.0519 69.8142 32.9423C70.0704 32.8737 70.1274 33.2835 69.8728 33.3516Z" fill="white"/>
<path id="Vector_26" d="M52.2641 43.6694C51.3664 42.7094 50.8389 41.4613 50.776 40.1481C50.7131 38.8349 51.1188 37.5421 51.9207 36.5005C52.0837 36.2903 52.4178 36.5338 52.2546 36.7443C51.5061 37.7128 51.1283 38.9171 51.1894 40.1399C51.2505 41.3626 51.7464 42.5232 52.5877 43.4122C52.7703 43.6057 52.4457 43.8617 52.2641 43.6694Z" fill="white"/>
<path id="Vector_27" d="M47.5756 54.0035C50.2595 54.1169 52.8875 53.2141 54.9356 51.4751C55.1383 51.3027 55.3952 51.6266 55.1926 51.7988C53.058 53.6045 50.3212 54.5384 47.5286 54.4142C47.2625 54.4022 47.3109 53.9915 47.5756 54.0035Z" fill="white"/>
<path id="Vector_28" d="M61.8604 36.4C62.1304 36.8439 62.5063 37.2137 62.9545 37.4763C63.4027 37.7389 63.909 37.886 64.4281 37.9044C64.6943 37.913 64.6455 38.3237 64.3811 38.3152C63.8077 38.2921 63.2487 38.129 62.7529 37.84C62.2571 37.551 61.8396 37.1449 61.5368 36.6572C61.5044 36.6136 61.4898 36.5593 61.496 36.5054C61.5022 36.4514 61.5287 36.4018 61.5701 36.3667C61.6131 36.3329 61.6677 36.3174 61.7221 36.3236C61.7764 36.3298 61.8261 36.3573 61.8604 36.4Z" fill="white"/>
<path id="Vector_29" d="M83.399 61.9019C83.2327 61.9012 83.0663 61.9005 82.8979 61.9027C80.6612 61.9054 78.4283 62.0898 76.2215 62.4542C76.0504 62.4797 75.8774 62.5081 75.7074 62.5384C70.3999 63.4731 65.312 65.3855 60.7023 68.1784C58.869 69.2914 57.1231 70.5424 55.4795 71.9205C53.2097 73.8238 50.9001 76.0682 48.2136 77.0804C47.9344 77.1891 47.6489 77.2805 47.3585 77.3539L34.5756 68.9658C34.5561 68.9322 34.5346 68.9013 34.5149 68.8676L33.9893 68.556C34.0691 68.479 34.1535 68.4009 34.2333 68.3239C34.2794 68.279 34.3284 68.236 34.3745 68.1912C34.4061 68.1619 34.4379 68.1326 34.4648 68.1044C34.4753 68.0946 34.4859 68.0849 34.4945 68.078C34.5214 68.0497 34.5493 68.0263 34.5743 68.001C35.045 67.5629 35.5196 67.1273 35.9981 66.6943C36 66.6914 36 66.6914 36.0048 66.6904C39.6591 63.4004 43.6201 60.3868 47.9123 58.0705C48.0415 58.0008 48.1724 57.9282 48.3074 57.8623C50.2479 56.829 52.2696 55.956 54.3523 55.2522C55.4939 54.8705 56.6542 54.5468 57.8285 54.2825C60.8642 53.6053 63.9875 53.41 67.0838 53.7039C73.2562 54.2906 79.1724 56.8457 83.1023 61.5402C83.2027 61.6604 83.3005 61.7788 83.399 61.9019Z" fill="#F0F0F0"/>
<path id="Vector_30" d="M83.2639 62.0453C76.0693 59.1332 68.1405 58.5632 60.6037 60.4162C58.9741 60.7863 57.413 61.411 55.9779 62.2675C54.6068 63.1469 53.4962 64.3777 52.7613 65.8319C52.0489 67.174 51.4756 68.6293 50.4495 69.7748C49.9156 70.3533 49.2655 70.8124 48.5418 71.1219C47.8181 71.4314 47.0372 71.5844 46.2502 71.5708C44.2885 71.588 42.4377 70.8989 40.6511 70.1621C38.6674 69.344 36.62 68.4628 34.4276 68.599C34.1619 68.6155 34.1519 68.2021 34.4171 68.1856C38.2315 67.9488 41.3966 70.6006 45.0821 71.0848C46.8019 71.3107 48.6001 71.0195 49.8822 69.7697C51.0033 68.6767 51.5958 67.1765 52.3054 65.8113C53.0014 64.3823 54.0367 63.1454 55.3207 62.2089C56.7076 61.2821 58.242 60.5982 59.8583 60.1865C63.4822 59.2015 67.2384 58.7927 70.9892 58.9751C75.2712 59.1595 79.4901 60.0754 83.4634 61.6832C83.7093 61.7828 83.5082 62.1443 83.2639 62.0453Z" fill="white"/>
<path id="Vector_31" d="M62.9954 59.6766C62.8563 58.3693 63.1863 57.055 63.9263 55.9686C64.6663 54.8822 65.7683 54.0943 67.0353 53.7457C67.2919 53.6761 67.4122 54.0718 67.1552 54.1415C65.9747 54.464 64.9484 55.198 64.2613 56.211C63.5743 57.2241 63.2718 58.4495 63.4085 59.6661C63.4379 59.9305 63.0247 59.9395 62.9954 59.6766Z" fill="white"/>
<path id="Vector_32" d="M53.033 65.1038C55.1076 66.811 57.7492 67.6732 60.431 67.5184C60.6966 67.5028 60.7068 67.9162 60.4414 67.9317C57.6504 68.0876 54.9032 67.1848 52.7482 65.4035C52.543 65.2335 52.8288 64.9348 53.033 65.1038Z" fill="white"/>
<path id="Vector_33" d="M75.0321 59.6529C74.9805 60.1699 75.0581 60.6917 75.258 61.1713C75.4578 61.6509 75.7736 62.0734 76.1769 62.4008C76.3842 62.568 76.0981 62.8666 75.8922 62.7004C75.4482 62.3367 75.1001 61.8697 74.8781 61.3403C74.6562 60.8109 74.5672 60.2351 74.6189 59.6634C74.6193 59.6091 74.6403 59.5569 74.6777 59.5176C74.7151 59.4782 74.7661 59.4546 74.8203 59.4515C74.875 59.4503 74.9279 59.4709 74.9676 59.5086C75.0072 59.5463 75.0304 59.5982 75.0321 59.6529Z" fill="white"/>
<path id="Vector_34" d="M227.085 179.888C233.704 181.511 241.424 179.967 245.778 174.722C238.367 174.619 231.232 171.897 225.633 167.038C223.481 165.156 221.283 162.839 218.426 162.747C216.649 162.69 214.941 163.559 213.625 164.755C212.308 165.951 211.323 167.461 210.353 168.952L209.967 169.171C214.807 173.972 220.466 178.264 227.085 179.888Z" fill="#F0F0F0"/>
<path id="Vector_35" d="M245.681 174.616C240.411 176.628 234.64 176.927 229.19 175.471C228.011 175.179 226.886 174.702 225.855 174.059C224.872 173.4 224.082 172.489 223.57 171.422C223.071 170.436 222.676 169.37 221.947 168.523C221.567 168.095 221.101 167.752 220.58 167.516C220.058 167.281 219.493 167.158 218.921 167.157C217.496 167.116 216.141 167.59 214.832 168.099C213.378 168.665 211.878 169.276 210.286 169.145C210.093 169.129 210.08 169.429 210.273 169.445C213.041 169.673 215.38 167.791 218.065 167.493C219.318 167.354 220.621 167.592 221.534 168.518C222.333 169.329 222.742 170.428 223.238 171.43C223.723 172.479 224.457 173.393 225.377 174.092C226.371 174.786 227.477 175.305 228.645 175.627C231.264 176.396 233.988 176.747 236.717 176.669C239.831 176.597 242.91 175.993 245.821 174.882C246.001 174.814 245.86 174.548 245.681 174.616Z" fill="white"/>
<path id="Vector_36" d="M230.918 176.044C230.798 176.992 231.018 177.951 231.54 178.752C232.062 179.552 232.852 180.14 233.767 180.412C233.953 180.467 234.046 180.181 233.86 180.126C233.007 179.875 232.272 179.327 231.787 178.58C231.303 177.834 231.101 176.939 231.218 176.057C231.243 175.865 230.943 175.853 230.918 176.044Z" fill="white"/>
<path id="Vector_37" d="M223.756 171.955C225.289 170.744 227.221 170.156 229.168 170.308C229.361 170.323 229.374 170.022 229.181 170.007C227.155 169.853 225.146 170.47 223.554 171.733C223.402 171.853 223.606 172.075 223.756 171.955Z" fill="white"/>
<path id="Vector_38" d="M239.664 176.235C239.634 175.859 239.698 175.481 239.851 175.135C240.003 174.79 240.238 174.487 240.536 174.255C240.689 174.137 240.486 173.916 240.334 174.033C240.006 174.291 239.746 174.625 239.577 175.007C239.408 175.389 239.335 175.806 239.364 176.222C239.364 176.261 239.378 176.3 239.405 176.329C239.432 176.358 239.468 176.376 239.508 176.379C239.547 176.38 239.586 176.366 239.615 176.339C239.645 176.313 239.662 176.275 239.664 176.235Z" fill="white"/>
<path id="Vector_39" d="M241.493 152.037C241.395 152.108 241.297 152.179 241.197 152.25C239.879 153.201 238.485 154.044 237.03 154.77C236.919 154.828 236.805 154.885 236.692 154.94C233.168 156.651 229.357 157.693 225.453 158.012C223.899 158.138 222.338 158.145 220.784 158.034C218.636 157.88 216.321 157.543 214.307 158.091C214.097 158.146 213.889 158.214 213.687 158.295L209.73 168.682C209.732 168.711 209.733 168.738 209.736 168.766L209.559 169.174C209.638 169.185 209.721 169.195 209.801 169.206C209.847 169.213 209.895 169.218 209.941 169.224C209.972 169.228 210.003 169.232 210.031 169.237C210.041 169.238 210.052 169.24 210.06 169.24C210.088 169.245 210.114 169.247 210.14 169.251C210.603 169.309 211.068 169.363 211.534 169.414C211.537 169.415 211.537 169.415 211.54 169.414C215.088 169.837 218.675 169.838 222.223 169.416C222.329 169.402 222.437 169.389 222.545 169.37C224.127 169.152 225.69 168.805 227.216 168.332C228.051 168.07 228.872 167.766 229.676 167.421C231.753 166.526 233.675 165.31 235.374 163.818C238.759 160.842 241.156 156.816 241.472 152.376C241.48 152.262 241.487 152.151 241.493 152.037Z" fill="#F0F0F0"/>
<path id="Vector_40" d="M241.352 152.01C238.355 156.791 233.927 160.506 228.699 162.626C227.582 163.103 226.397 163.4 225.187 163.507C224.005 163.573 222.827 163.322 221.775 162.778C220.784 162.292 219.827 161.679 218.735 161.441C218.174 161.328 217.595 161.335 217.037 161.461C216.479 161.587 215.954 161.83 215.497 162.173C214.334 162.999 213.537 164.194 212.799 165.389C211.979 166.716 211.148 168.108 209.799 168.962C209.635 169.065 209.805 169.313 209.968 169.21C212.316 167.724 213.051 164.813 215.016 162.957C215.932 162.091 217.115 161.496 218.403 161.686C219.528 161.852 220.516 162.483 221.515 162.985C222.533 163.53 223.67 163.817 224.825 163.822C226.036 163.776 227.231 163.525 228.358 163.079C230.912 162.115 233.298 160.755 235.43 159.049C237.873 157.116 239.968 154.778 241.624 152.138C241.726 151.975 241.454 151.847 241.352 152.01Z" fill="white"/>
<path id="Vector_41" d="M230.423 162.042C230.898 162.872 231.652 163.505 232.55 163.83C233.448 164.154 234.433 164.148 235.327 163.814C235.508 163.745 235.411 163.461 235.23 163.53C234.397 163.843 233.48 163.848 232.644 163.544C231.808 163.24 231.108 162.647 230.671 161.872C230.575 161.704 230.328 161.875 230.423 162.042Z" fill="white"/>
<path id="Vector_42" d="M222.245 163.091C222.74 161.202 223.929 159.568 225.574 158.516C225.737 158.412 225.567 158.165 225.404 158.269C223.694 159.366 222.46 161.069 221.95 163.036C221.901 163.224 222.196 163.278 222.245 163.091Z" fill="white"/>
<path id="Vector_43" d="M237.522 156.927C237.272 156.644 237.096 156.304 237.009 155.936C236.923 155.569 236.929 155.185 237.027 154.821C237.078 154.634 236.782 154.58 236.732 154.765C236.625 155.169 236.619 155.592 236.713 155.999C236.808 156.405 237.001 156.782 237.275 157.097C237.298 157.129 237.333 157.15 237.371 157.158C237.41 157.165 237.45 157.157 237.483 157.136C237.516 157.113 237.539 157.078 237.546 157.039C237.553 157 237.545 156.96 237.522 156.927Z" fill="white"/>
<path id="Vector_44" d="M253.609 116.235L243.515 133.229L243.899 133.431L240.481 139.915L239.769 139.538L237.523 143.317L238.081 143.638L234.419 149.982L233.784 149.615L200.849 205.07C199.985 206.522 198.581 207.571 196.945 207.987C195.309 208.404 193.574 208.154 192.122 207.293L130.894 170.894C129.443 170.03 128.394 168.626 127.978 166.989C127.561 165.352 127.811 163.616 128.672 162.164L181.432 73.3284C182.296 71.8771 183.7 70.828 185.336 70.4113C186.972 69.9945 188.706 70.2442 190.159 71.1056L251.387 107.504C252.837 108.369 253.885 109.774 254.302 111.41C254.718 113.047 254.469 114.782 253.609 116.235Z" fill="#3F3D56"/>
<path id="Vector_45" d="M194.304 203.864L132.86 167.337C132.413 167.071 132.09 166.638 131.962 166.133C131.833 165.629 131.91 165.094 132.176 164.646L185.286 75.2198C185.552 74.7725 185.985 74.4492 186.489 74.3208C186.993 74.1923 187.528 74.2693 187.976 74.5347L249.42 111.061C249.867 111.328 250.19 111.761 250.318 112.265C250.447 112.77 250.37 113.305 250.104 113.753L196.994 203.179C196.728 203.626 196.295 203.949 195.791 204.078C195.287 204.206 194.752 204.129 194.304 203.864Z" fill="white"/>
<path id="Vector_46" d="M219.544 91.3848C219.843 91.3848 220.086 91.1422 220.086 90.8429C220.086 90.5436 219.843 90.301 219.544 90.301C219.245 90.301 219.002 90.5436 219.002 90.8429C219.002 91.1422 219.245 91.3848 219.544 91.3848Z" fill="white"/>
<path id="Vector_47" d="M216.192 155.444L164.901 124.954C164.74 124.859 164.6 124.733 164.488 124.584C164.375 124.435 164.294 124.265 164.247 124.084C164.201 123.903 164.191 123.715 164.217 123.53C164.244 123.345 164.306 123.167 164.402 123.006C164.497 122.846 164.623 122.706 164.773 122.594C164.923 122.482 165.093 122.401 165.274 122.355C165.455 122.31 165.643 122.3 165.828 122.327C166.012 122.355 166.19 122.418 166.35 122.514L217.641 153.005C217.801 153.1 217.942 153.225 218.054 153.374C218.166 153.524 218.248 153.694 218.294 153.875C218.341 154.056 218.351 154.244 218.325 154.429C218.298 154.614 218.235 154.792 218.14 154.952C218.045 155.113 217.918 155.253 217.769 155.365C217.619 155.476 217.449 155.557 217.268 155.603C217.087 155.649 216.899 155.658 216.714 155.631C216.529 155.604 216.352 155.54 216.192 155.444Z" fill="#E6E6E6"/>
<path id="Vector_48" d="M195.712 150.72L178.841 140.69C178.681 140.595 178.541 140.469 178.429 140.32C178.318 140.171 178.237 140.001 178.191 139.821C178.145 139.64 178.135 139.452 178.161 139.268C178.188 139.083 178.251 138.906 178.346 138.746C178.441 138.585 178.567 138.446 178.716 138.334C178.865 138.222 179.035 138.141 179.215 138.095C179.396 138.049 179.584 138.039 179.768 138.066C179.952 138.093 180.13 138.156 180.29 138.251L197.161 148.28C197.321 148.375 197.461 148.501 197.572 148.65C197.684 148.799 197.765 148.969 197.811 149.15C197.857 149.33 197.866 149.518 197.84 149.703C197.813 149.887 197.751 150.064 197.655 150.225C197.56 150.385 197.435 150.525 197.285 150.636C197.136 150.748 196.967 150.829 196.786 150.875C196.606 150.921 196.418 150.931 196.233 150.904C196.049 150.877 195.872 150.815 195.712 150.72Z" fill="#E6E6E6"/>
<path id="Vector_49" d="M189.079 161.888L172.208 151.859C171.885 151.667 171.651 151.354 171.558 150.989C171.465 150.625 171.521 150.238 171.713 149.915C171.905 149.591 172.218 149.357 172.582 149.265C172.947 149.172 173.333 149.228 173.657 149.42L190.528 159.449C190.688 159.544 190.827 159.67 190.939 159.819C191.05 159.968 191.132 160.138 191.177 160.319C191.223 160.499 191.233 160.687 191.207 160.871C191.18 161.056 191.117 161.233 191.022 161.393C190.927 161.554 190.801 161.694 190.652 161.805C190.503 161.917 190.333 161.998 190.153 162.044C189.972 162.09 189.785 162.1 189.6 162.073C189.416 162.046 189.239 161.984 189.079 161.888Z" fill="#E6E6E6"/>
<path id="Vector_50" d="M185.681 167.609L168.81 157.58C168.65 157.485 168.51 157.359 168.398 157.21C168.286 157.061 168.204 156.891 168.158 156.71C168.112 156.529 168.102 156.341 168.128 156.156C168.155 155.972 168.217 155.794 168.313 155.634C168.408 155.473 168.534 155.333 168.683 155.221C168.833 155.11 169.003 155.029 169.184 154.983C169.364 154.937 169.553 154.927 169.737 154.954C169.922 154.981 170.099 155.045 170.259 155.14L187.13 165.169C187.291 165.264 187.432 165.39 187.544 165.539C187.656 165.688 187.738 165.858 187.784 166.039C187.831 166.22 187.841 166.409 187.814 166.594C187.788 166.778 187.725 166.956 187.63 167.117C187.534 167.278 187.408 167.418 187.259 167.529C187.109 167.641 186.939 167.722 186.758 167.768C186.577 167.814 186.388 167.823 186.204 167.796C186.019 167.769 185.841 167.705 185.681 167.609Z" fill="#E6E6E6"/>
<path id="Vector_51" d="M201.903 161.85L166.109 140.572C165.787 140.379 165.555 140.066 165.463 139.702C165.372 139.338 165.428 138.953 165.619 138.63C165.811 138.307 166.123 138.074 166.486 137.981C166.849 137.887 167.235 137.942 167.558 138.132L203.352 159.411C203.513 159.506 203.654 159.631 203.766 159.781C203.878 159.93 203.96 160.1 204.006 160.281C204.053 160.462 204.063 160.65 204.037 160.835C204.01 161.02 203.947 161.198 203.852 161.358C203.757 161.519 203.63 161.659 203.481 161.771C203.331 161.882 203.161 161.963 202.98 162.009C202.799 162.055 202.611 162.064 202.426 162.037C202.241 162.01 202.064 161.946 201.903 161.85Z" fill="#E6E6E6"/>
<path id="Vector_52" d="M195.081 189.044L188.955 185.403C188.406 185.076 188.01 184.544 187.852 183.924C187.695 183.304 187.79 182.647 188.116 182.098C188.443 181.548 188.974 181.15 189.593 180.992C190.213 180.834 190.869 180.929 191.419 181.255L197.545 184.896C198.095 185.223 198.492 185.755 198.65 186.375C198.808 186.995 198.713 187.653 198.386 188.203C198.059 188.753 197.528 189.151 196.908 189.308C196.288 189.466 195.631 189.371 195.081 189.044Z" fill="#6C63FF"/>
<path id="Vector_53" d="M206.51 129.918C213.445 129.918 219.066 124.294 219.066 117.356C219.066 110.418 213.445 104.794 206.51 104.794C199.576 104.794 193.954 110.418 193.954 117.356C193.954 124.294 199.576 129.918 206.51 129.918Z" fill="#6C63FF"/>
<path id="Vector_54" d="M0.647888 168.404H170.567V69.9843C170.566 69.2469 170.273 68.5399 169.752 68.0184C169.231 67.497 168.524 67.2037 167.787 67.2029H3.42801C2.69095 67.2037 1.98431 67.497 1.46311 68.0184C0.941919 68.5399 0.648739 69.2469 0.647888 69.9843V168.404Z" fill="#CACACA"/>
<path id="Vector_55" d="M165.317 71.0496H5.89778V161.598H165.317V71.0496Z" fill="white"/>
<path id="Vector_56" d="M0.5 165.741V177.886C0.499995 178.39 0.599111 178.888 0.791692 179.354C0.984272 179.819 1.26654 180.241 1.62239 180.597C1.97824 180.953 2.4007 181.236 2.86564 181.429C3.33057 181.621 3.82889 181.72 4.33214 181.72H67.048V205.689H66.2148C66.1494 205.689 66.0847 205.702 66.0243 205.727C65.9639 205.752 65.909 205.789 65.8628 205.835C65.8166 205.881 65.7799 205.936 65.7549 205.997C65.7299 206.057 65.717 206.122 65.717 206.187V207.854C65.717 207.92 65.7299 207.985 65.7549 208.045C65.7799 208.105 65.8166 208.16 65.8628 208.207C65.909 208.253 65.9639 208.289 66.0243 208.314C66.0847 208.34 66.1494 208.352 66.2148 208.352H105.148C105.213 208.352 105.278 208.34 105.338 208.314C105.399 208.289 105.454 208.253 105.5 208.207C105.546 208.16 105.583 208.105 105.608 208.045C105.633 207.985 105.646 207.92 105.646 207.854V206.187C105.646 206.122 105.633 206.057 105.608 205.997C105.583 205.936 105.546 205.881 105.5 205.835C105.454 205.789 105.399 205.752 105.338 205.727C105.278 205.702 105.213 205.689 105.148 205.689H104.315V181.72H167.031C167.534 181.72 168.032 181.621 168.497 181.429C168.962 181.236 169.385 180.953 169.74 180.597C170.096 180.241 170.378 179.819 170.571 179.354C170.764 178.888 170.863 178.39 170.863 177.886V165.741L0.5 165.741Z" fill="#3F3D56"/>
<path id="Vector_57" d="M142.249 101.333H66.7541C66.2782 101.333 65.8218 101.143 65.4852 100.807C65.1487 100.47 64.9597 100.013 64.9597 99.5373C64.9597 99.0611 65.1487 98.6045 65.4852 98.2678C65.8218 97.9311 66.2782 97.7419 66.7541 97.7419H142.249C142.725 97.7419 143.181 97.9311 143.518 98.2678C143.854 98.6045 144.043 99.0611 144.043 99.5373C144.043 100.013 143.854 100.47 143.518 100.807C143.181 101.143 142.725 101.333 142.249 101.333Z" fill="#E6E6E6"/>
<path id="Vector_58" d="M116.918 109.437H92.0853C91.6094 109.437 91.1529 109.248 90.8164 108.911C90.4798 108.574 90.2908 108.118 90.2908 107.642C90.2908 107.165 90.4798 106.709 90.8164 106.372C91.1529 106.035 91.6094 105.846 92.0853 105.846H116.918C117.394 105.846 117.85 106.035 118.187 106.372C118.523 106.709 118.712 107.165 118.712 107.642C118.712 108.118 118.523 108.574 118.187 108.911C117.85 109.248 117.394 109.437 116.918 109.437Z" fill="#E6E6E6"/>
<path id="Vector_59" d="M116.918 125.877H92.0853C91.6094 125.877 91.1529 125.687 90.8164 125.351C90.4798 125.014 90.2908 124.557 90.2908 124.081C90.2908 123.605 90.4798 123.148 90.8164 122.812C91.1529 122.475 91.6094 122.286 92.0853 122.286H116.918C117.394 122.286 117.85 122.475 118.187 122.812C118.523 123.148 118.712 123.605 118.712 124.081C118.712 124.557 118.523 125.014 118.187 125.351C117.85 125.687 117.394 125.877 116.918 125.877Z" fill="#E6E6E6"/>
<path id="Vector_60" d="M116.918 134.297H92.0853C91.8497 134.297 91.6163 134.25 91.3986 134.16C91.1809 134.07 90.9831 133.937 90.8164 133.771C90.6498 133.604 90.5176 133.406 90.4274 133.188C90.3373 132.97 90.2908 132.737 90.2908 132.501C90.2908 132.265 90.3373 132.032 90.4274 131.814C90.5176 131.596 90.6498 131.398 90.8164 131.232C90.9831 131.065 91.1809 130.933 91.3986 130.842C91.6163 130.752 91.8497 130.706 92.0853 130.706H116.918C117.153 130.706 117.387 130.752 117.604 130.842C117.822 130.933 118.02 131.065 118.187 131.232C118.353 131.398 118.485 131.596 118.576 131.814C118.666 132.032 118.712 132.265 118.712 132.501C118.712 132.737 118.666 132.97 118.576 133.188C118.485 133.406 118.353 133.604 118.187 133.771C118.02 133.937 117.822 134.07 117.604 134.16C117.387 134.25 117.153 134.297 116.918 134.297Z" fill="#E6E6E6"/>
<path id="Vector_61" d="M130.844 117.541H78.1585C77.6826 117.541 77.2262 117.352 76.8897 117.016C76.5531 116.679 76.3641 116.222 76.3641 115.746C76.3641 115.27 76.5531 114.813 76.8897 114.477C77.2262 114.14 77.6826 113.951 78.1585 113.951H130.844C131.32 113.951 131.777 114.14 132.113 114.477C132.45 114.813 132.639 115.27 132.639 115.746C132.639 116.222 132.45 116.679 132.113 117.016C131.777 117.352 131.32 117.541 130.844 117.541Z" fill="#E6E6E6"/>
<path id="Vector_62" d="M140.992 151.536H131.976C131.166 151.536 130.39 151.215 129.818 150.642C129.246 150.07 128.924 149.293 128.924 148.483C128.924 147.674 129.246 146.897 129.818 146.325C130.39 145.752 131.166 145.43 131.976 145.43H140.992C141.801 145.43 142.578 145.752 143.15 146.325C143.722 146.897 144.044 147.674 144.044 148.483C144.044 149.293 143.722 150.07 143.15 150.642C142.578 151.215 141.801 151.536 140.992 151.536Z" fill="#6C63FF"/>
<path id="Vector_63" d="M43.0144 129.378C51.6826 129.378 58.7095 122.348 58.7095 113.675C58.7095 105.003 51.6826 97.9727 43.0144 97.9727C34.3462 97.9727 27.3193 105.003 27.3193 113.675C27.3193 122.348 34.3462 129.378 43.0144 129.378Z" fill="#6C63FF"/>
<path id="Vector_64" d="M226.679 209H0.915307C0.805374 209 0.700055 208.956 0.622434 208.878C0.544812 208.8 0.501221 208.694 0.501221 208.584C0.501221 208.474 0.544812 208.369 0.622434 208.291C0.700055 208.213 0.805374 208.169 0.915307 208.169H226.679C226.789 208.169 226.894 208.213 226.972 208.291C227.049 208.369 227.093 208.474 227.093 208.584C227.093 208.694 227.049 208.8 226.972 208.878C226.894 208.956 226.789 209 226.679 209Z" fill="#CACACA"/>
<path id="Vector_65" d="M85.5335 69.1263C85.8602 69.1263 86.125 68.8613 86.125 68.5344C86.125 68.2076 85.8602 67.9426 85.5335 67.9426C85.2068 67.9426 84.942 68.2076 84.942 68.5344C84.942 68.8613 85.2068 69.1263 85.5335 69.1263Z" fill="white"/>
</g>
<defs>
<clipPath id="clip0_40_22025">
<rect width="254" height="209" fill="white" transform="translate(0.5)"/>
</clipPath>
</defs>
</svg>
