<svg width="496" height="282" viewBox="0 0 496 282" fill="none" xmlns="http://www.w3.org/2000/svg">
<rect x="0.5" y="0.5" width="494.834" height="281" stroke="white" stroke-opacity="0.25"/>
<line y1="45.6179" x2="495.834" y2="45.6179" stroke="white" stroke-opacity="0.25"/>
<line y1="91.7358" x2="495.834" y2="91.7358" stroke="white" stroke-opacity="0.25"/>
<line y1="140.122" x2="495.834" y2="140.122" stroke="white" stroke-opacity="0.25"/>
<line y1="188.508" x2="495.834" y2="188.508" stroke="white" stroke-opacity="0.25"/>
<line y1="233.114" x2="495.834" y2="233.114" stroke="white" stroke-opacity="0.25"/>
<line x1="54.3959" y1="282" x2="54.3959" y2="2.47522e-08" stroke="white" stroke-opacity="0.25"/>
<line x1="108.406" y1="282" x2="108.406" y2="1.86619e-08" stroke="white" stroke-opacity="0.25"/>
<line x1="165.073" y1="282" x2="165.073" y2="1.86619e-08" stroke="white" stroke-opacity="0.25"/>
<line x1="221.74" y1="282" x2="221.74" y2="1.86619e-08" stroke="white" stroke-opacity="0.25"/>
<line x1="273.979" y1="282" x2="273.979" y2="1.86619e-08" stroke="white" stroke-opacity="0.25"/>
<line x1="328.875" y1="282" x2="328.875" y2="1.86619e-08" stroke="white" stroke-opacity="0.25"/>
<line x1="382.886" y1="282" x2="382.886" y2="1.86619e-08" stroke="white" stroke-opacity="0.25"/>
<line x1="439.552" y1="282" x2="439.552" y2="1.86619e-08" stroke="white" stroke-opacity="0.25"/>
<g clip-path="url(#clip0_40_21671)">
<path d="M390.028 245.872C379.085 254.213 365.752 262.662 352.644 266.646C348.866 267.829 344.966 268.584 341.02 268.897C337.33 269.193 333.616 268.905 330.016 268.042C320.556 265.687 311.781 261.563 303.291 256.744C300.517 255.168 297.776 253.519 295.05 251.834C290.6 249.082 286.195 246.233 281.777 243.453C281.116 243.032 280.459 242.618 279.797 242.209H279.793C278.727 241.539 277.658 240.879 276.586 240.227C276.398 240.111 276.21 239.999 276.017 239.882C273.993 238.655 271.934 237.455 269.84 236.284C269.583 236.143 269.327 235.999 269.07 235.858C265.019 233.609 260.856 231.57 256.596 229.748C253.798 228.569 250.964 227.505 248.102 226.599H248.098C247.003 226.254 245.905 225.929 244.803 225.632C241.497 224.724 238.129 224.064 234.725 223.658C230.035 223.09 225.292 223.127 220.611 223.77C220.295 223.814 219.982 223.859 219.665 223.911C206.998 225.941 195.438 232.785 182.715 234.398C182.302 234.45 181.893 234.498 181.48 234.534C181.304 234.55 181.127 234.57 180.951 234.583C177.253 234.899 173.533 234.808 169.855 234.31C159.581 232.954 149.576 228.745 140.569 223.441C119.512 211.04 102.436 191.98 92.0535 169.906C90.2707 166.123 88.6878 162.249 87.3114 158.299C83.4632 147.348 81.344 135.863 81.03 124.258C80.056 83.9943 102.917 43.5981 138.809 25.3879C174.705 7.17772 221.926 13.1996 250.876 41.1749C268.437 58.1454 278.599 81.1419 291.815 101.687C305.031 122.228 323.815 141.851 348.043 144.843C360.385 146.368 373.3 143.419 385.13 147.255C391.679 149.381 397.267 153.449 401.769 158.632C404.795 162.15 407.328 166.064 409.297 170.267C410.74 173.305 411.911 176.466 412.796 179.711C412.961 180.309 413.113 180.907 413.261 181.505C419.154 205.592 409.738 230.843 390.028 245.872Z" fill="#F2F2F2"/>
<path d="M192.904 202.266H155.224C149.579 202.266 145.002 206.847 145.002 212.497V212.497C145.002 218.147 149.579 222.727 155.224 222.727H192.904C198.549 222.727 203.126 218.147 203.126 212.497C203.126 206.847 198.549 202.266 192.904 202.266Z" fill="#3F3D56"/>
<path d="M181.48 217.512V234.534C177.609 234.909 173.708 234.834 169.855 234.31V217.512H181.48Z" fill="#3F3D56"/>
<path d="M220.611 223.77C220.294 223.814 219.982 223.858 219.665 223.911C206.998 225.941 195.438 232.785 182.714 234.398C182.302 234.45 181.893 234.498 181.48 234.534C181.303 234.55 181.127 234.57 180.951 234.582C177.844 231.537 174.737 228.296 171.819 224.938C170.236 223.12 168.705 221.267 167.266 219.389C163.53 214.543 160.363 209.56 158.27 204.665C158.483 202.318 157.024 196.89 156.326 192.734L156.322 192.73C156.026 190.985 155.865 189.468 156.014 188.493C156.863 182.868 161.453 183.514 162.864 178.002C164.137 176.945 165.492 175.991 166.917 175.149C167.153 175.009 167.394 174.869 167.642 174.728L182.955 164.137L188.807 169.882L197.714 178.628L207.367 188.1L199.173 196.385C199.173 196.385 206.02 204.284 214.025 214.816C216.174 217.644 218.406 220.665 220.611 223.77Z" fill="#2F2E41"/>
<path d="M352.644 217.512V266.646C348.866 267.828 344.966 268.583 341.02 268.897V217.512H352.644Z" fill="#3F3D56"/>
<path d="M367.676 213.5H329.996C324.351 213.5 319.774 218.08 319.774 223.73V223.73C319.774 229.38 324.351 233.961 329.996 233.961H367.676C373.322 233.961 377.898 229.38 377.898 223.73C377.898 218.08 373.322 213.5 367.676 213.5Z" fill="#3F3D56"/>
<path d="M276.017 239.882C273.993 238.654 271.934 237.455 269.84 236.283C269.583 236.143 269.327 235.999 269.07 235.858L270.449 235.268L274.169 233.668L274.205 233.652L274.245 233.788L276.017 239.882Z" fill="#FFB6B6"/>
<path d="M281.777 243.453C281.116 243.032 280.459 242.618 279.797 242.209H279.793C278.727 241.539 277.658 240.878 276.586 240.227C276.398 240.111 276.21 239.999 276.017 239.882C273.993 238.655 271.934 237.455 269.84 236.283C269.583 236.143 269.327 235.999 269.07 235.858C265.019 233.609 260.856 231.57 256.596 229.748C253.798 228.568 250.964 227.505 248.102 226.599H248.098L245.849 222.831L235.727 205.865L233.503 202.138C233.503 202.138 225.914 204.384 215.176 206.539C211.267 207.325 206.946 208.096 202.412 208.745C197.566 209.436 192.483 209.985 187.433 210.25C185.023 210.378 182.622 210.443 180.257 210.422C174.144 210.382 168.272 209.809 163.129 208.445C161.413 206.832 156.242 204.637 152.538 202.627H152.534C150.979 201.785 149.688 200.978 149.011 200.26C145.106 196.128 148.441 192.906 144.97 188.397C144.923 186.743 145.008 185.087 145.223 183.446C145.259 183.173 145.295 182.897 145.339 182.616L146.433 164.016L154.563 162.941L166.933 161.304L180.333 159.531L181.809 171.093C181.809 171.093 192.243 170.564 205.463 170.74C226.696 171.029 255.109 173.148 258.957 182.239C259.318 183.093 259.678 183.956 260.039 184.818C260.897 186.88 261.747 188.953 262.589 191.037C265.639 198.579 268.549 206.194 271.207 213.391C272.858 217.869 274.414 222.185 275.845 226.226C276.995 229.475 278.061 232.548 279.036 235.377C279.925 237.96 280.731 240.34 281.449 242.474C281.561 242.807 281.669 243.136 281.777 243.453Z" fill="#2F2E41"/>
<path d="M206.996 130.762L181.319 108.937L198.025 92.0159L209.68 111.122L252.881 119.694C254.18 118.716 255.736 118.137 257.358 118.028C258.98 117.919 260.599 118.284 262.017 119.08C263.435 119.876 264.591 121.068 265.344 122.51C266.097 123.952 266.415 125.582 266.258 127.202C266.101 128.821 265.477 130.36 264.462 131.631C263.446 132.902 262.083 133.849 260.539 134.358C258.995 134.867 257.336 134.915 255.765 134.497C254.194 134.079 252.778 133.212 251.691 132.002L206.996 130.762Z" fill="#A0616A"/>
<path d="M158.627 80.253C155.659 89.9148 183.92 112.958 183.92 112.958C184.234 110.639 200.257 130.64 201.348 128.829C204.446 123.681 207.855 110.955 211.432 109.329C213.477 108.398 201.743 95.4699 201.743 95.4699C201.743 95.4699 195.757 87.5439 187.854 77.4987C185.672 74.6172 182.797 72.3351 179.497 70.8648C176.197 69.3944 172.579 68.7836 168.98 69.0891C168.98 69.0891 161.594 70.5912 158.627 80.253Z" fill="#3F3D56"/>
<path d="M171.122 58.8638C180.713 58.8638 188.489 51.0819 188.489 41.4824C188.489 31.883 180.713 24.1011 171.122 24.1011C161.531 24.1011 153.755 31.883 153.755 41.4824C153.755 51.0819 161.531 58.8638 171.122 58.8638Z" fill="#A0616A"/>
<path d="M179.805 70.3517C183.547 72.5778 185.785 76.6681 187.07 80.8303C189.448 88.5361 190.88 96.5033 191.333 104.556L192.69 128.663L209.497 179.995C194.931 192.33 140.181 182.798 140.181 182.798C140.181 182.798 138.501 182.238 140.181 180.556C141.862 178.873 143.498 180.364 141.817 178.682C140.137 177 141.295 178.874 141.856 177.191C142.416 175.509 141.856 176.631 141.295 176.07C140.735 175.509 145.632 170.463 145.632 170.463L141.151 140.998L135.549 81.5654C142.271 73.155 155.791 68.1972 155.791 68.1972L159.284 61.9038L176.751 63.3023L179.805 70.3517Z" fill="#3F3D56"/>
<path d="M185.438 32.2481C186.788 33.2557 187.788 34.6616 188.297 36.2679C188.493 33.6428 188.505 31.0074 188.334 28.3806C188.13 26.5348 186.831 26.1196 185.328 25.6385C183.97 25.2038 182.435 24.7129 182.021 22.921C176.562 17.6058 167.059 17.8738 160.556 19.7278C156.977 20.7481 154.918 22.0589 154.733 22.8267L154.695 22.9848L154.55 23.0575C151.791 24.438 151.254 28.7971 151.29 32.2109C151.357 38.6426 153.576 45.9473 154.826 46.5407C154.892 46.5722 154.909 46.5599 154.937 46.536C156.82 45.0306 159.116 46.6504 160.125 47.5309C160.72 43.5335 162.637 39.851 165.568 37.0716C168.5 34.2922 172.278 32.5761 176.298 32.1976C177.611 32.0706 178.913 31.852 180.196 31.5434C180.846 31.375 181.515 31.2871 182.187 31.2819C183.344 31.2643 184.478 31.6015 185.438 32.2481Z" fill="#2F2E41"/>
<path d="M163.555 156.949L158.243 154.226C157.958 154.023 157.756 153.725 157.673 153.385C157.59 153.045 157.633 152.687 157.792 152.375C157.951 152.064 158.217 151.82 158.541 151.689C158.865 151.558 159.225 151.547 159.556 151.66L164.869 154.383C165.153 154.586 165.355 154.885 165.438 155.224C165.521 155.564 165.479 155.923 165.32 156.234C165.16 156.545 164.894 156.789 164.57 156.92C164.247 157.052 163.886 157.062 163.555 156.949Z" fill="#6C63FF"/>
<path d="M145.676 149.654L136.937 117.092L160.29 112.668L159.034 135.018L189.719 166.639C191.343 166.573 192.952 166.981 194.348 167.814C195.745 168.646 196.87 169.868 197.585 171.329C198.3 172.791 198.575 174.429 198.376 176.043C198.177 177.658 197.513 179.181 196.464 180.424C195.416 181.668 194.029 182.579 192.472 183.048C190.915 183.516 189.255 183.521 187.695 183.061C186.136 182.602 184.743 181.698 183.688 180.46C182.633 179.223 181.96 177.704 181.752 176.091L145.676 149.654Z" fill="#A0616A"/>
<path d="M134.547 80.5837C126.62 86.847 136.795 121.881 136.795 121.881C138.37 120.15 140.2 145.722 142.126 144.851C147.598 142.376 157.628 133.843 161.494 134.538C163.706 134.936 161.389 117.624 161.389 117.624C161.389 117.624 160.963 107.698 160.162 94.9377C160.002 91.3259 158.932 87.8132 157.052 84.7266C155.171 81.6401 152.54 79.0799 149.405 77.2846C149.405 77.2846 142.474 74.3205 134.547 80.5837Z" fill="#3F3D56"/>
<path d="M409.297 170.267L92.0534 169.906C90.2706 166.123 88.6877 162.249 87.3114 158.299L401.769 158.632C404.795 162.15 407.328 166.064 409.297 170.267Z" fill="#3F3D56"/>
<path d="M308.254 254.446C306.614 255.24 304.96 256.006 303.291 256.744C300.517 255.168 297.775 253.519 295.05 251.834L305.159 247.389L308.254 254.446Z" fill="#FFB6B6"/>
<path d="M381.963 199.161C380.319 201.368 378.624 203.53 376.876 205.648C375.264 207.602 373.61 209.518 371.913 211.397C371.212 212.176 370.502 212.95 369.777 213.716C368.442 215.149 367.078 216.557 365.684 217.941C363.175 218.731 358.092 220.123 352.644 221.423C348.68 222.366 344.523 223.261 341.02 223.83C339.058 224.183 337.074 224.395 335.083 224.464C332.718 224.484 330.317 224.42 327.908 224.292C325.19 224.147 322.468 223.923 319.778 223.634C312.783 222.9 306.009 221.756 300.165 220.581C298.024 220.155 296.012 219.722 294.16 219.301C290.652 218.511 287.718 217.772 285.594 217.211C283.2 216.585 281.838 216.18 281.838 216.18L275.845 226.226L272.734 231.437L270.449 235.268L269.84 236.283C269.583 236.143 269.327 235.999 269.07 235.858C265.019 233.609 260.856 231.57 256.596 229.748C253.798 228.568 250.964 227.505 248.102 226.599H248.098C247.003 226.254 245.905 225.929 244.803 225.632C245.147 224.705 245.496 223.772 245.849 222.831C246.506 221.078 247.177 219.309 247.861 217.524C249.34 213.656 250.872 209.732 252.447 205.829C253.738 202.623 255.053 199.43 256.383 196.28C256.997 194.828 258.243 193.552 259.987 192.433C260.82 191.907 261.69 191.44 262.589 191.037C267.579 188.762 274.931 187.282 283.032 186.331C283.702 186.255 284.375 186.178 285.052 186.106C291.759 185.4 298.874 185.035 305.528 184.866C308.859 184.782 312.074 184.75 315.064 184.746C316.03 184.746 316.97 184.749 317.882 184.754H317.886C320.352 184.766 322.62 184.802 324.617 184.842C325.005 184.85 325.382 184.862 325.751 184.87H325.755C326.004 184.874 326.248 184.882 326.489 184.886C330.854 184.999 333.532 185.135 333.532 185.135L334.57 176.983L334.782 175.338L334.983 173.773V173.769L335.007 173.573L335.171 173.569L338.057 173.513L362.317 173.039L375.569 172.778L373.469 181.789L370.001 196.658C370.354 199.009 382.083 197.167 381.963 199.161Z" fill="#2F2E41"/>
<path d="M311.244 252.961C310.254 253.467 309.256 253.964 308.254 254.446C306.614 255.24 304.96 256.006 303.291 256.744C300.517 255.168 297.775 253.519 295.05 251.834C290.6 249.082 286.195 246.233 281.777 243.453C281.116 243.032 280.459 242.618 279.797 242.209H279.793C277.973 239.505 276.117 236.689 274.245 233.788C274.217 233.748 274.193 233.708 274.169 233.668C273.688 232.93 273.21 232.186 272.734 231.437C269.74 226.743 266.729 221.849 263.807 216.85L271.207 213.391L284.964 206.964L287.337 205.857L294.16 219.301L300.245 231.293L301.6 233.961L311.244 252.961Z" fill="#2F2E41"/>
<path d="M313.318 188.416L348.392 154.562L358.114 127.012L343.774 120.771C336.409 127.833 328.447 149.827 328.447 149.827L304.311 180.561C304.123 180.625 303.935 180.694 303.75 180.775C302.663 181.255 301.717 182.008 301.006 182.96C300.294 183.912 299.84 185.032 299.687 186.211C299.534 187.39 299.688 188.589 300.133 189.692C300.578 190.794 301.3 191.763 302.229 192.505C303.157 193.246 304.262 193.736 305.434 193.925C306.607 194.115 307.809 193.999 308.924 193.588C310.039 193.177 311.029 192.485 311.799 191.579C312.568 190.673 313.092 189.583 313.318 188.416Z" fill="#FFB8B8"/>
<path d="M339.739 123.847L357.928 129.627L357.997 129.615C364.767 128.48 370.384 117.414 373.905 108.33C375.063 105.334 375.041 102.009 373.844 99.0286C372.647 96.0478 370.364 93.633 367.456 92.2726C365.304 91.2835 362.919 90.9166 360.569 91.2132C358.22 91.5099 356 92.4583 354.162 93.9514L344.821 101.59L339.739 123.847Z" fill="#6C63FF"/>
<path d="M381.89 199.567L381.996 199.426C387.671 191.893 379.909 173.239 378.736 170.533L384.012 168.969L383.093 158.913L382.65 154.43L386.752 150.53L386.766 150.431L389.588 130.334L393.28 117.033C394.671 112.004 394.7 106.696 393.365 101.652C392.029 96.6088 389.376 92.0118 385.679 88.3334L378.132 80.8339L369.09 66.6692L353.93 66.2775L348.479 75.9699C343.409 77.0054 338.863 79.7881 335.633 83.8333C332.402 87.8785 330.692 92.9298 330.8 98.1072L331.313 123.91L325.874 155.88L325.721 161.687L320.382 167.326L321.369 173.027L317.375 174.619L315.421 182.72C314.675 183.655 309.746 189.889 309.701 191.627C309.695 191.888 309.881 192.146 310.286 192.436C313.476 194.72 331.306 199.67 339.331 196.694C347.878 193.527 381.378 199.475 381.716 199.536L381.89 199.567Z" fill="#6C63FF"/>
<path d="M360.186 61.9353C371.278 61.9353 380.27 52.9357 380.27 41.8341C380.27 30.7324 371.278 21.7328 360.186 21.7328C349.094 21.7328 340.102 30.7324 340.102 41.8341C340.102 52.9357 349.094 61.9353 360.186 61.9353Z" fill="#FFB8B8"/>
<path d="M357.736 62.2042C360.846 62.2528 363.955 62.0353 367.028 61.5543C370.074 60.9343 376.889 55.9363 378.789 52.9287C380.2 50.6941 381.103 47.2046 381.611 44.6709C382.296 41.3181 382.27 37.8586 381.535 34.5165C380.799 31.1744 379.37 28.0242 377.341 25.2699C376.561 24.1179 375.484 23.1982 374.225 22.6083C374.113 22.5646 373.998 22.5259 373.882 22.4928C372.047 22.0096 370.398 20.9884 369.147 19.5605C368.905 19.2717 368.642 19.0007 368.36 18.7497C366.946 17.5555 365.27 16.7132 363.469 16.2915C360.561 15.5126 356.353 16.2858 350.961 18.5917C348.253 19.7502 345.29 19.331 343.012 18.8362C342.884 18.8115 342.752 18.8207 342.629 18.8629C342.505 18.9052 342.395 18.9789 342.31 19.0769C341.34 19.9879 340.062 20.4979 338.732 20.5042C337.918 20.54 337.063 21.6688 336.03 23.1408C335.796 23.4749 335.522 23.8649 335.325 24.1021L335.298 23.6464L334.838 24.1547C334.113 24.9537 333.603 25.9231 333.354 26.9727C333.105 28.0223 333.125 29.1179 333.413 30.1575C333.701 31.1971 334.247 32.1469 335 32.9185C335.753 33.69 336.69 34.2582 337.721 34.5702C338.541 34.7883 339.38 34.9222 340.227 34.9698C340.74 35.0159 341.27 35.0637 341.778 35.1519C343.41 35.4863 344.926 36.2383 346.181 37.3345C347.435 38.4308 348.384 39.8338 348.935 41.4066C349.065 41.7702 349.277 42.0989 349.554 42.3675C349.831 42.636 350.167 42.8372 350.534 42.9555C350.901 43.0737 351.291 43.1059 351.673 43.0495C352.055 42.9932 352.418 42.8498 352.736 42.6304C353.265 42.2177 353.887 41.9394 354.547 41.819C355.207 41.6987 355.887 41.74 356.528 41.9394C357.081 42.2476 357.512 42.737 357.749 43.3255C358.035 43.9812 358.511 44.5364 359.115 44.9205C361.179 45.9857 361.321 50.7046 360.58 54.6383C359.865 58.4301 358.452 61.1731 357.144 61.3087C356.137 61.4129 356.022 61.4845 355.949 61.6628L355.884 61.8223L355.997 61.9716C356.553 62.1734 357.147 62.2527 357.736 62.2042Z" fill="#2F2E41"/>
<path d="M344.727 117.77L336.983 102.318C325.743 103.086 303.434 116.094 303.434 116.094L261.224 125.051C259.974 124.57 258.619 124.427 257.296 124.636C255.973 124.846 254.728 125.401 253.687 126.245C252.646 127.089 251.846 128.193 251.367 129.445C250.888 130.697 250.747 132.053 250.958 133.377C251.169 134.701 251.725 135.946 252.569 136.987C253.414 138.027 254.518 138.827 255.769 139.305C257.021 139.783 258.376 139.923 259.699 139.71C261.021 139.497 262.265 138.939 263.303 138.093L316.996 134.241L344.727 117.77Z" fill="#FFB8B8"/>
<path d="M341.604 120.307L361.828 105.265L365.391 92.4154C366.081 89.8904 366.052 87.2225 365.306 84.7132C364.561 82.2039 363.129 79.9532 361.173 78.2155C358.505 75.8778 355.05 74.6411 351.507 74.7556C347.963 74.87 344.594 76.327 342.083 78.8319C334.472 86.4351 325.791 97.0421 327.656 104.397L327.675 104.472L341.604 120.307Z" fill="#6C63FF"/>
<path d="M316.567 160.542H262.452V167.763H316.567V160.542Z" fill="white"/>
<path d="M178.273 160.542H124.158V167.763H178.273V160.542Z" fill="white"/>
<path d="M184.592 125.814V160.198C184.592 160.636 184.766 161.056 185.076 161.366C185.386 161.676 185.805 161.85 186.243 161.85H237.153C237.591 161.85 238.011 161.676 238.321 161.366C238.63 161.056 238.804 160.636 238.805 160.198V125.814C238.803 125.376 238.629 124.957 238.32 124.647C238.01 124.338 237.591 124.164 237.153 124.163H186.243C185.806 124.164 185.386 124.338 185.077 124.647C184.767 124.957 184.593 125.376 184.592 125.814Z" fill="#3F3D56"/>
<path d="M185.786 126.242V159.774C185.787 160.008 185.88 160.232 186.045 160.398C186.211 160.563 186.435 160.656 186.669 160.657H236.73C236.964 160.656 237.188 160.563 237.353 160.398C237.519 160.232 237.612 160.008 237.612 159.774V126.242C237.612 126.007 237.519 125.783 237.354 125.617C237.188 125.451 236.964 125.357 236.73 125.357H186.669C186.435 125.357 186.21 125.451 186.045 125.617C185.879 125.782 185.786 126.007 185.786 126.242Z" fill="#6C63FF"/>
<path d="M183.527 166.904C183.621 167.021 183.739 167.115 183.874 167.18C184.009 167.244 184.157 167.277 184.306 167.277H238.819C238.968 167.277 239.115 167.243 239.25 167.179C239.385 167.115 239.503 167.021 239.597 166.905C239.691 166.789 239.758 166.654 239.793 166.509C239.828 166.364 239.83 166.213 239.8 166.067L238.954 162.044C238.918 161.88 238.843 161.727 238.734 161.6C238.625 161.472 238.486 161.374 238.329 161.315C238.216 161.27 238.095 161.247 237.973 161.247H185.149C185.027 161.247 184.907 161.27 184.793 161.315C184.637 161.374 184.497 161.472 184.388 161.6C184.279 161.727 184.204 161.88 184.169 162.044L183.322 166.067C183.292 166.213 183.295 166.364 183.331 166.508C183.366 166.653 183.433 166.788 183.527 166.904Z" fill="#2F2E41"/>
<path d="M236.103 162.98H237.39C237.498 162.98 237.586 162.893 237.586 162.784V162.168C237.586 162.06 237.498 161.972 237.39 161.972H236.103C235.994 161.972 235.907 162.06 235.907 162.168V162.784C235.907 162.893 235.994 162.98 236.103 162.98Z" fill="#3F3D56"/>
<path d="M232.745 162.98H234.032C234.14 162.98 234.228 162.893 234.228 162.784V162.168C234.228 162.06 234.14 161.972 234.032 161.972H232.745C232.637 161.972 232.549 162.06 232.549 162.168V162.784C232.549 162.893 232.637 162.98 232.745 162.98Z" fill="#3F3D56"/>
<path d="M229.387 162.98H230.674C230.782 162.98 230.87 162.893 230.87 162.784V162.168C230.87 162.06 230.782 161.972 230.674 161.972H229.387C229.279 161.972 229.191 162.06 229.191 162.168V162.784C229.191 162.893 229.279 162.98 229.387 162.98Z" fill="#3F3D56"/>
<path d="M226.029 162.98H227.316C227.424 162.98 227.512 162.893 227.512 162.784V162.168C227.512 162.06 227.424 161.972 227.316 161.972H226.029C225.921 161.972 225.833 162.06 225.833 162.168V162.784C225.833 162.893 225.921 162.98 226.029 162.98Z" fill="#3F3D56"/>
<path d="M222.671 162.98H223.958C224.066 162.98 224.154 162.893 224.154 162.784V162.168C224.154 162.06 224.066 161.972 223.958 161.972H222.671C222.563 161.972 222.475 162.06 222.475 162.168V162.784C222.475 162.893 222.563 162.98 222.671 162.98Z" fill="#3F3D56"/>
<path d="M219.313 162.98H220.6C220.709 162.98 220.796 162.893 220.796 162.784V162.168C220.796 162.06 220.709 161.972 220.6 161.972H219.313C219.205 161.972 219.117 162.06 219.117 162.168V162.784C219.117 162.893 219.205 162.98 219.313 162.98Z" fill="#3F3D56"/>
<path d="M215.955 162.98H217.242C217.351 162.98 217.438 162.893 217.438 162.784V162.168C217.438 162.06 217.351 161.972 217.242 161.972H215.955C215.847 161.972 215.759 162.06 215.759 162.168V162.784C215.759 162.893 215.847 162.98 215.955 162.98Z" fill="#3F3D56"/>
<path d="M212.597 162.98H213.885C213.993 162.98 214.08 162.893 214.08 162.784V162.168C214.08 162.06 213.993 161.972 213.885 161.972H212.597C212.489 161.972 212.401 162.06 212.401 162.168V162.784C212.401 162.893 212.489 162.98 212.597 162.98Z" fill="#3F3D56"/>
<path d="M209.239 162.98H210.527C210.635 162.98 210.722 162.893 210.722 162.784V162.168C210.722 162.06 210.635 161.972 210.527 161.972H209.239C209.131 161.972 209.043 162.06 209.043 162.168V162.784C209.043 162.893 209.131 162.98 209.239 162.98Z" fill="#3F3D56"/>
<path d="M205.881 162.98H207.169C207.277 162.98 207.364 162.893 207.364 162.784V162.168C207.364 162.06 207.277 161.972 207.169 161.972H205.881C205.773 161.972 205.685 162.06 205.685 162.168V162.784C205.685 162.893 205.773 162.98 205.881 162.98Z" fill="#3F3D56"/>
<path d="M202.523 162.98H203.811C203.919 162.98 204.006 162.893 204.006 162.784V162.168C204.006 162.06 203.919 161.972 203.811 161.972H202.523C202.415 161.972 202.327 162.06 202.327 162.168V162.784C202.327 162.893 202.415 162.98 202.523 162.98Z" fill="#3F3D56"/>
<path d="M199.165 162.98H200.453C200.561 162.98 200.648 162.893 200.648 162.784V162.168C200.648 162.06 200.561 161.972 200.453 161.972H199.165C199.057 161.972 198.969 162.06 198.969 162.168V162.784C198.969 162.893 199.057 162.98 199.165 162.98Z" fill="#3F3D56"/>
<path d="M195.807 162.98H197.095C197.203 162.98 197.291 162.893 197.291 162.784V162.168C197.291 162.06 197.203 161.972 197.095 161.972H195.807C195.699 161.972 195.612 162.06 195.612 162.168V162.784C195.612 162.893 195.699 162.98 195.807 162.98Z" fill="#3F3D56"/>
<path d="M192.449 162.98H193.737C193.845 162.98 193.933 162.893 193.933 162.784V162.168C193.933 162.06 193.845 161.972 193.737 161.972H192.449C192.341 161.972 192.254 162.06 192.254 162.168V162.784C192.254 162.893 192.341 162.98 192.449 162.98Z" fill="#3F3D56"/>
<path d="M189.091 162.98H190.379C190.487 162.98 190.575 162.893 190.575 162.784V162.168C190.575 162.06 190.487 161.972 190.379 161.972H189.091C188.983 161.972 188.896 162.06 188.896 162.168V162.784C188.896 162.893 188.983 162.98 189.091 162.98Z" fill="#3F3D56"/>
<path d="M185.733 162.98H187.021C187.129 162.98 187.217 162.893 187.217 162.784V162.168C187.217 162.06 187.129 161.972 187.021 161.972H185.733C185.625 161.972 185.538 162.06 185.538 162.168V162.784C185.538 162.893 185.625 162.98 185.733 162.98Z" fill="#3F3D56"/>
<path d="M236.142 164.661H237.43C237.538 164.661 237.626 164.573 237.626 164.465V163.848C237.626 163.74 237.538 163.652 237.43 163.652H236.142C236.034 163.652 235.947 163.74 235.947 163.848V164.465C235.947 164.573 236.034 164.661 236.142 164.661Z" fill="#3F3D56"/>
<path d="M232.784 164.661H234.072C234.18 164.661 234.268 164.573 234.268 164.465V163.848C234.268 163.74 234.18 163.652 234.072 163.652H232.784C232.676 163.652 232.589 163.74 232.589 163.848V164.465C232.589 164.573 232.676 164.661 232.784 164.661Z" fill="#3F3D56"/>
<path d="M229.426 164.661H230.714C230.822 164.661 230.91 164.573 230.91 164.465V163.848C230.91 163.74 230.822 163.652 230.714 163.652H229.426C229.318 163.652 229.231 163.74 229.231 163.848V164.465C229.231 164.573 229.318 164.661 229.426 164.661Z" fill="#3F3D56"/>
<path d="M226.068 164.661H227.356C227.464 164.661 227.552 164.573 227.552 164.465V163.848C227.552 163.74 227.464 163.652 227.356 163.652H226.068C225.96 163.652 225.873 163.74 225.873 163.848V164.465C225.873 164.573 225.96 164.661 226.068 164.661Z" fill="#3F3D56"/>
<path d="M222.71 164.661H223.998C224.106 164.661 224.194 164.573 224.194 164.465V163.848C224.194 163.74 224.106 163.652 223.998 163.652H222.71C222.602 163.652 222.515 163.74 222.515 163.848V164.465C222.515 164.573 222.602 164.661 222.71 164.661Z" fill="#3F3D56"/>
<path d="M219.352 164.661H220.64C220.748 164.661 220.836 164.573 220.836 164.465V163.848C220.836 163.74 220.748 163.652 220.64 163.652H219.352C219.244 163.652 219.157 163.74 219.157 163.848V164.465C219.157 164.573 219.244 164.661 219.352 164.661Z" fill="#3F3D56"/>
<path d="M215.995 164.661H217.282C217.39 164.661 217.478 164.573 217.478 164.465V163.848C217.478 163.74 217.39 163.652 217.282 163.652H215.995C215.887 163.652 215.799 163.74 215.799 163.848V164.465C215.799 164.573 215.887 164.661 215.995 164.661Z" fill="#3F3D56"/>
<path d="M212.637 164.661H213.924C214.032 164.661 214.12 164.573 214.12 164.465V163.848C214.12 163.74 214.032 163.652 213.924 163.652H212.637C212.529 163.652 212.441 163.74 212.441 163.848V164.465C212.441 164.573 212.529 164.661 212.637 164.661Z" fill="#3F3D56"/>
<path d="M209.279 164.661H210.566C210.674 164.661 210.762 164.573 210.762 164.465V163.848C210.762 163.74 210.674 163.652 210.566 163.652H209.279C209.171 163.652 209.083 163.74 209.083 163.848V164.465C209.083 164.573 209.171 164.661 209.279 164.661Z" fill="#3F3D56"/>
<path d="M205.921 164.661H207.208C207.316 164.661 207.404 164.573 207.404 164.465V163.848C207.404 163.74 207.316 163.652 207.208 163.652H205.921C205.813 163.652 205.725 163.74 205.725 163.848V164.465C205.725 164.573 205.813 164.661 205.921 164.661Z" fill="#3F3D56"/>
<path d="M202.563 164.661H203.85C203.958 164.661 204.046 164.573 204.046 164.465V163.848C204.046 163.74 203.958 163.652 203.85 163.652H202.563C202.455 163.652 202.367 163.74 202.367 163.848V164.465C202.367 164.573 202.455 164.661 202.563 164.661Z" fill="#3F3D56"/>
<path d="M199.205 164.661H200.492C200.601 164.661 200.688 164.573 200.688 164.465V163.848C200.688 163.74 200.601 163.652 200.492 163.652H199.205C199.097 163.652 199.009 163.74 199.009 163.848V164.465C199.009 164.573 199.097 164.661 199.205 164.661Z" fill="#3F3D56"/>
<path d="M195.847 164.661H197.135C197.243 164.661 197.33 164.573 197.33 164.465V163.848C197.33 163.74 197.243 163.652 197.135 163.652H195.847C195.739 163.652 195.651 163.74 195.651 163.848V164.465C195.651 164.573 195.739 164.661 195.847 164.661Z" fill="#3F3D56"/>
<path d="M192.489 164.661H193.777C193.885 164.661 193.972 164.573 193.972 164.465V163.848C193.972 163.74 193.885 163.652 193.777 163.652H192.489C192.381 163.652 192.293 163.74 192.293 163.848V164.465C192.293 164.573 192.381 164.661 192.489 164.661Z" fill="#3F3D56"/>
<path d="M189.131 164.661H190.419C190.527 164.661 190.614 164.573 190.614 164.465V163.848C190.614 163.74 190.527 163.652 190.419 163.652H189.131C189.023 163.652 188.935 163.74 188.935 163.848V164.465C188.935 164.573 189.023 164.661 189.131 164.661Z" fill="#3F3D56"/>
<path d="M185.773 164.661H187.061C187.169 164.661 187.256 164.573 187.256 164.465V163.848C187.256 163.74 187.169 163.652 187.061 163.652H185.773C185.665 163.652 185.577 163.74 185.577 163.848V164.465C185.577 164.573 185.665 164.661 185.773 164.661Z" fill="#3F3D56"/>
<path d="M208.271 166.677H221.312C221.42 166.677 221.507 166.589 221.507 166.481V165.865C221.507 165.757 221.42 165.669 221.312 165.669H208.271C208.163 165.669 208.076 165.757 208.076 165.865V166.481C208.076 166.589 208.163 166.677 208.271 166.677Z" fill="#3F3D56"/>
</g>
<defs>
<clipPath id="clip0_40_21671">
<rect width="334" height="254" fill="white" transform="translate(81 15)"/>
</clipPath>
</defs>
</svg>
