<svg width="72" height="73" viewBox="0 0 72 73" fill="none" xmlns="http://www.w3.org/2000/svg">
<path d="M57.8999 24.2599V39.71C57.8999 48.95 52.6199 52.9099 44.6999 52.9099H18.3299C16.9799 52.9099 15.6899 52.7901 14.4899 52.5201C13.7399 52.4001 13.0199 52.1901 12.3599 51.9501C7.85989 50.2701 5.12988 46.37 5.12988 39.71V24.2599C5.12988 15.0199 10.4099 11.0601 18.3299 11.0601H44.6999C51.4199 11.0601 56.2499 13.91 57.5399 20.42C57.7499 21.62 57.8999 22.8499 57.8999 24.2599Z" stroke="#635BFF" stroke-width="3" stroke-miterlimit="10" stroke-linecap="round" stroke-linejoin="round"/>
<path d="M66.9032 33.2603V48.7104C66.9032 57.9504 61.6232 61.9103 53.7032 61.9103H27.3332C25.1132 61.9103 23.1032 61.6104 21.3632 60.9504C17.7932 59.6304 15.3632 56.9004 14.4932 52.5204C15.6932 52.7904 16.9832 52.9103 18.3332 52.9103H44.7032C52.6232 52.9103 57.9032 48.9504 57.9032 39.7104V24.2603C57.9032 22.8503 57.7832 21.5904 57.5432 20.4204C63.2432 21.6204 66.9032 25.6403 66.9032 33.2603Z" stroke="#635BFF" stroke-width="3" stroke-miterlimit="10" stroke-linecap="round" stroke-linejoin="round"/>
<path d="M31.4952 39.9197C35.8693 39.9197 39.4153 36.3737 39.4153 31.9996C39.4153 27.6255 35.8693 24.0796 31.4952 24.0796C27.1211 24.0796 23.5752 27.6255 23.5752 31.9996C23.5752 36.3737 27.1211 39.9197 31.4952 39.9197Z" stroke="#635BFF" stroke-width="3" stroke-miterlimit="10" stroke-linecap="round" stroke-linejoin="round"/>
<path d="M14.3398 25.3999V38.6" stroke="#635BFF" stroke-width="3" stroke-miterlimit="10" stroke-linecap="round" stroke-linejoin="round"/>
<path d="M48.665 25.4009V38.601" stroke="#635BFF" stroke-width="3" stroke-miterlimit="10" stroke-linecap="round" stroke-linejoin="round"/>
</svg>
