<svg width="15" height="16" viewBox="0 0 15 16" fill="none" xmlns="http://www.w3.org/2000/svg">
<path id="Vector" d="M5.38462 13.7172C1.53846 14.8586 1.53846 11.8149 0 11.4344L5.38462 13.7172ZM10.7692 16V13.0552C10.7981 12.6923 10.7485 12.3276 10.6239 11.9852C10.4992 11.6427 10.3023 11.3305 10.0462 11.0691C12.4615 10.8028 15 9.89731 15 5.74261C14.9998 4.68022 14.5867 3.65856 13.8462 2.88911C14.1968 1.95963 14.172 0.932252 13.7769 0.0203878C13.7769 0.0203878 12.8692 -0.245939 10.7692 1.14657C9.00616 0.673894 7.14769 0.673894 5.38462 1.14657C3.28462 -0.245939 2.37692 0.0203878 2.37692 0.0203878C1.98183 0.932252 1.95703 1.95963 2.30769 2.88911C1.56164 3.66427 1.14809 4.69516 1.15385 5.76544C1.15385 9.8897 3.69231 10.7952 6.10769 11.092C5.85461 11.3507 5.65943 11.6592 5.53485 11.9974C5.41027 12.3357 5.35908 12.6961 5.38462 13.0552V16" fill="#525E76"/>
</svg>
