<svg width="19" height="18" viewBox="0 0 19 18" fill="none" xmlns="http://www.w3.org/2000/svg">
<g id="Frame 29">
<path id="Vector" d="M12.9 6.05261C14.2526 6.05261 15.5498 6.58494 16.5062 7.53249C17.4627 8.48005 18 9.7652 18 11.1052V17H14.6V11.1052C14.6 10.6586 14.4209 10.2302 14.1021 9.91433C13.7833 9.59848 13.3509 9.42103 12.9 9.42103C12.4491 9.42103 12.0167 9.59848 11.6979 9.91433C11.3791 10.2302 11.2 10.6586 11.2 11.1052V17H7.79999V11.1052C7.79999 9.7652 8.33731 8.48005 9.29374 7.53249C10.2502 6.58494 11.5474 6.05261 12.9 6.05261Z" fill="#525E76" stroke="#525E76" stroke-width="2" stroke-linecap="round" stroke-linejoin="round"/>
<path id="Vector_2" d="M4.4 6.89478H1V17H4.4V6.89478Z" fill="#525E76" stroke="#525E76" stroke-width="2" stroke-linecap="round" stroke-linejoin="round"/>
<path id="Vector_3" d="M2.7 4.36842C3.63888 4.36842 4.4 3.61437 4.4 2.68421C4.4 1.75405 3.63888 1 2.7 1C1.76112 1 1 1.75405 1 2.68421C1 3.61437 1.76112 4.36842 2.7 4.36842Z" fill="#525E76" stroke="#525E76" stroke-width="2" stroke-linecap="round" stroke-linejoin="round"/>
</g>
</svg>
